<mxfile host="app.diagrams.net" modified="2022-04-10T18:59:13.885Z" agent="5.0 (Windows NT 10.0; Win64; x64) AppleWebKit/537.36 (KHTML, like Gecko) Chrome/100.0.4896.75 Safari/537.36 Edg/100.0.1185.36" etag="JffNHvX5C6sFakD5vITB" version="17.4.0" type="github" pages="6">
  <diagram id="_UskwaHjsK3cTjWXo-qu" name="FDD">
    <mxGraphModel dx="1064" dy="657" grid="1" gridSize="10" guides="1" tooltips="1" connect="1" arrows="1" fold="1" page="1" pageScale="1" pageWidth="827" pageHeight="1169" math="0" shadow="0">
      <root>
        <mxCell id="0" />
        <mxCell id="1" parent="0" />
        <mxCell id="FxrB7IyvanoQIsVXkkQR-6" style="edgeStyle=orthogonalEdgeStyle;rounded=0;orthogonalLoop=1;jettySize=auto;html=1;exitX=0.5;exitY=1;exitDx=0;exitDy=0;entryX=0.5;entryY=0;entryDx=0;entryDy=0;endArrow=none;endFill=0;" parent="1" source="FxrB7IyvanoQIsVXkkQR-1" target="FxrB7IyvanoQIsVXkkQR-3" edge="1">
          <mxGeometry relative="1" as="geometry" />
        </mxCell>
        <mxCell id="FxrB7IyvanoQIsVXkkQR-7" style="edgeStyle=orthogonalEdgeStyle;rounded=0;orthogonalLoop=1;jettySize=auto;html=1;exitX=0.5;exitY=1;exitDx=0;exitDy=0;entryX=0.5;entryY=0;entryDx=0;entryDy=0;endArrow=none;endFill=0;" parent="1" source="FxrB7IyvanoQIsVXkkQR-1" target="FxrB7IyvanoQIsVXkkQR-4" edge="1">
          <mxGeometry relative="1" as="geometry" />
        </mxCell>
        <mxCell id="FxrB7IyvanoQIsVXkkQR-8" style="edgeStyle=orthogonalEdgeStyle;rounded=0;orthogonalLoop=1;jettySize=auto;html=1;exitX=0.5;exitY=1;exitDx=0;exitDy=0;entryX=0.5;entryY=0;entryDx=0;entryDy=0;endArrow=none;endFill=0;" parent="1" source="FxrB7IyvanoQIsVXkkQR-1" target="FxrB7IyvanoQIsVXkkQR-2" edge="1">
          <mxGeometry relative="1" as="geometry" />
        </mxCell>
        <mxCell id="FxrB7IyvanoQIsVXkkQR-1" value="Система Електронного&lt;br&gt;Навчання" style="rounded=0;whiteSpace=wrap;html=1;" parent="1" vertex="1">
          <mxGeometry x="220" y="50" width="120" height="60" as="geometry" />
        </mxCell>
        <mxCell id="FxrB7IyvanoQIsVXkkQR-12" style="edgeStyle=orthogonalEdgeStyle;rounded=0;orthogonalLoop=1;jettySize=auto;html=1;exitX=0.25;exitY=1;exitDx=0;exitDy=0;entryX=0;entryY=0.5;entryDx=0;entryDy=0;endArrow=none;endFill=0;" parent="1" source="FxrB7IyvanoQIsVXkkQR-2" target="FxrB7IyvanoQIsVXkkQR-9" edge="1">
          <mxGeometry relative="1" as="geometry" />
        </mxCell>
        <mxCell id="FxrB7IyvanoQIsVXkkQR-13" style="edgeStyle=orthogonalEdgeStyle;rounded=0;orthogonalLoop=1;jettySize=auto;html=1;exitX=0.25;exitY=1;exitDx=0;exitDy=0;entryX=0;entryY=0.5;entryDx=0;entryDy=0;endArrow=none;endFill=0;" parent="1" source="FxrB7IyvanoQIsVXkkQR-2" target="FxrB7IyvanoQIsVXkkQR-10" edge="1">
          <mxGeometry relative="1" as="geometry" />
        </mxCell>
        <mxCell id="FxrB7IyvanoQIsVXkkQR-14" style="edgeStyle=orthogonalEdgeStyle;rounded=0;orthogonalLoop=1;jettySize=auto;html=1;exitX=0.25;exitY=1;exitDx=0;exitDy=0;entryX=0;entryY=0.5;entryDx=0;entryDy=0;endArrow=none;endFill=0;" parent="1" source="FxrB7IyvanoQIsVXkkQR-2" target="FxrB7IyvanoQIsVXkkQR-11" edge="1">
          <mxGeometry relative="1" as="geometry" />
        </mxCell>
        <mxCell id="FxrB7IyvanoQIsVXkkQR-2" value="Управління користувачем&lt;br&gt;1.0" style="rounded=0;whiteSpace=wrap;html=1;" parent="1" vertex="1">
          <mxGeometry x="30" y="160" width="120" height="60" as="geometry" />
        </mxCell>
        <mxCell id="FxrB7IyvanoQIsVXkkQR-23" style="edgeStyle=orthogonalEdgeStyle;rounded=0;orthogonalLoop=1;jettySize=auto;html=1;exitX=0.25;exitY=1;exitDx=0;exitDy=0;entryX=0;entryY=0.5;entryDx=0;entryDy=0;endArrow=none;endFill=0;" parent="1" source="FxrB7IyvanoQIsVXkkQR-3" target="FxrB7IyvanoQIsVXkkQR-17" edge="1">
          <mxGeometry relative="1" as="geometry" />
        </mxCell>
        <mxCell id="FxrB7IyvanoQIsVXkkQR-24" style="edgeStyle=orthogonalEdgeStyle;rounded=0;orthogonalLoop=1;jettySize=auto;html=1;exitX=0.25;exitY=1;exitDx=0;exitDy=0;entryX=0;entryY=0.5;entryDx=0;entryDy=0;endArrow=none;endFill=0;" parent="1" source="FxrB7IyvanoQIsVXkkQR-3" target="FxrB7IyvanoQIsVXkkQR-19" edge="1">
          <mxGeometry relative="1" as="geometry" />
        </mxCell>
        <mxCell id="FxrB7IyvanoQIsVXkkQR-25" style="edgeStyle=orthogonalEdgeStyle;rounded=0;orthogonalLoop=1;jettySize=auto;html=1;exitX=0.25;exitY=1;exitDx=0;exitDy=0;entryX=0;entryY=0.5;entryDx=0;entryDy=0;endArrow=none;endFill=0;" parent="1" source="FxrB7IyvanoQIsVXkkQR-3" target="FxrB7IyvanoQIsVXkkQR-21" edge="1">
          <mxGeometry relative="1" as="geometry" />
        </mxCell>
        <mxCell id="FxrB7IyvanoQIsVXkkQR-3" value="Запис на курси&lt;br&gt;2.0" style="rounded=0;whiteSpace=wrap;html=1;" parent="1" vertex="1">
          <mxGeometry x="220" y="160" width="120" height="60" as="geometry" />
        </mxCell>
        <mxCell id="FxrB7IyvanoQIsVXkkQR-26" style="edgeStyle=orthogonalEdgeStyle;rounded=0;orthogonalLoop=1;jettySize=auto;html=1;exitX=0.25;exitY=1;exitDx=0;exitDy=0;entryX=0;entryY=0.5;entryDx=0;entryDy=0;endArrow=none;endFill=0;" parent="1" source="FxrB7IyvanoQIsVXkkQR-4" target="FxrB7IyvanoQIsVXkkQR-18" edge="1">
          <mxGeometry relative="1" as="geometry" />
        </mxCell>
        <mxCell id="FxrB7IyvanoQIsVXkkQR-27" style="edgeStyle=orthogonalEdgeStyle;rounded=0;orthogonalLoop=1;jettySize=auto;html=1;exitX=0.25;exitY=1;exitDx=0;exitDy=0;entryX=0;entryY=0.5;entryDx=0;entryDy=0;endArrow=none;endFill=0;" parent="1" source="FxrB7IyvanoQIsVXkkQR-4" target="FxrB7IyvanoQIsVXkkQR-20" edge="1">
          <mxGeometry relative="1" as="geometry" />
        </mxCell>
        <mxCell id="FxrB7IyvanoQIsVXkkQR-29" style="edgeStyle=orthogonalEdgeStyle;rounded=0;orthogonalLoop=1;jettySize=auto;html=1;exitX=0.25;exitY=1;exitDx=0;exitDy=0;entryX=0;entryY=0.5;entryDx=0;entryDy=0;endArrow=none;endFill=0;" parent="1" source="FxrB7IyvanoQIsVXkkQR-4" target="FxrB7IyvanoQIsVXkkQR-22" edge="1">
          <mxGeometry relative="1" as="geometry" />
        </mxCell>
        <mxCell id="FxrB7IyvanoQIsVXkkQR-31" style="edgeStyle=orthogonalEdgeStyle;rounded=0;orthogonalLoop=1;jettySize=auto;html=1;exitX=0.25;exitY=1;exitDx=0;exitDy=0;entryX=0;entryY=0.5;entryDx=0;entryDy=0;endArrow=none;endFill=0;" parent="1" source="FxrB7IyvanoQIsVXkkQR-4" target="FxrB7IyvanoQIsVXkkQR-30" edge="1">
          <mxGeometry relative="1" as="geometry" />
        </mxCell>
        <mxCell id="on1AJ_n0RoRbqElyGjTE-2" style="edgeStyle=orthogonalEdgeStyle;rounded=0;orthogonalLoop=1;jettySize=auto;html=1;exitX=0.25;exitY=1;exitDx=0;exitDy=0;entryX=0;entryY=0.5;entryDx=0;entryDy=0;endArrow=none;endFill=0;" parent="1" source="FxrB7IyvanoQIsVXkkQR-4" target="on1AJ_n0RoRbqElyGjTE-1" edge="1">
          <mxGeometry relative="1" as="geometry" />
        </mxCell>
        <mxCell id="FxrB7IyvanoQIsVXkkQR-4" value="Проходження курсу&lt;br&gt;3.0" style="rounded=0;whiteSpace=wrap;html=1;" parent="1" vertex="1">
          <mxGeometry x="413.5" y="160" width="120" height="60" as="geometry" />
        </mxCell>
        <mxCell id="FxrB7IyvanoQIsVXkkQR-9" value="Авторизація&lt;br&gt;1.1" style="rounded=0;whiteSpace=wrap;html=1;" parent="1" vertex="1">
          <mxGeometry x="80" y="230" width="120" height="60" as="geometry" />
        </mxCell>
        <mxCell id="FxrB7IyvanoQIsVXkkQR-10" value="Реєстрація&lt;br&gt;1.2" style="rounded=0;whiteSpace=wrap;html=1;" parent="1" vertex="1">
          <mxGeometry x="80" y="300" width="120" height="60" as="geometry" />
        </mxCell>
        <mxCell id="FxrB7IyvanoQIsVXkkQR-11" value="Налаштування сторінки&lt;br&gt;1.3" style="rounded=0;whiteSpace=wrap;html=1;" parent="1" vertex="1">
          <mxGeometry x="80" y="370" width="120" height="60" as="geometry" />
        </mxCell>
        <mxCell id="FxrB7IyvanoQIsVXkkQR-17" value="Пошук курсів&lt;br&gt;2.1" style="rounded=0;whiteSpace=wrap;html=1;" parent="1" vertex="1">
          <mxGeometry x="270" y="230" width="120" height="60" as="geometry" />
        </mxCell>
        <mxCell id="FxrB7IyvanoQIsVXkkQR-18" value="Перегляд відео лекцій&lt;br&gt;3.1" style="rounded=0;whiteSpace=wrap;html=1;" parent="1" vertex="1">
          <mxGeometry x="463.5" y="230" width="120" height="60" as="geometry" />
        </mxCell>
        <mxCell id="FxrB7IyvanoQIsVXkkQR-19" value="Вибір курсів&lt;br&gt;2.2" style="rounded=0;whiteSpace=wrap;html=1;" parent="1" vertex="1">
          <mxGeometry x="270" y="300" width="120" height="60" as="geometry" />
        </mxCell>
        <mxCell id="FxrB7IyvanoQIsVXkkQR-20" value="Проходження тестів&lt;br&gt;3.2" style="rounded=0;whiteSpace=wrap;html=1;" parent="1" vertex="1">
          <mxGeometry x="463.5" y="300" width="120" height="60" as="geometry" />
        </mxCell>
        <mxCell id="FxrB7IyvanoQIsVXkkQR-21" value="Реєстрація на курси&lt;br&gt;2.3" style="rounded=0;whiteSpace=wrap;html=1;" parent="1" vertex="1">
          <mxGeometry x="270" y="370" width="120" height="60" as="geometry" />
        </mxCell>
        <mxCell id="FxrB7IyvanoQIsVXkkQR-22" value="Виконання лабараторних робіт&lt;br&gt;3.3" style="rounded=0;whiteSpace=wrap;html=1;" parent="1" vertex="1">
          <mxGeometry x="463.5" y="370" width="120" height="60" as="geometry" />
        </mxCell>
        <mxCell id="FxrB7IyvanoQIsVXkkQR-30" value="Перегляд оцінок&lt;br&gt;3.4" style="rounded=0;whiteSpace=wrap;html=1;" parent="1" vertex="1">
          <mxGeometry x="463.5" y="440" width="120" height="60" as="geometry" />
        </mxCell>
        <mxCell id="on1AJ_n0RoRbqElyGjTE-1" value="Отримання сертифікату&lt;br&gt;3.5" style="rounded=0;whiteSpace=wrap;html=1;" parent="1" vertex="1">
          <mxGeometry x="463.5" y="510" width="120" height="60" as="geometry" />
        </mxCell>
      </root>
    </mxGraphModel>
  </diagram>
  <diagram id="mD_nD0P0uL7NrpD5C3zq" name="DFD Context level">
    <mxGraphModel dx="1277" dy="788" grid="1" gridSize="10" guides="1" tooltips="1" connect="1" arrows="1" fold="1" page="1" pageScale="1" pageWidth="827" pageHeight="1169" math="0" shadow="0">
      <root>
        <mxCell id="hKH5R2ML7ik_y2sRalKR-0" />
        <mxCell id="hKH5R2ML7ik_y2sRalKR-1" parent="hKH5R2ML7ik_y2sRalKR-0" />
        <mxCell id="FBMTSQ7wI23uN15UbV6w-33" style="edgeStyle=orthogonalEdgeStyle;rounded=0;orthogonalLoop=1;jettySize=auto;html=1;exitX=0.75;exitY=0;exitDx=0;exitDy=0;entryX=0;entryY=0.5;entryDx=0;entryDy=0;endArrow=classic;endFill=1;startArrow=classic;startFill=1;" parent="hKH5R2ML7ik_y2sRalKR-1" source="SEWDAJe8R1NJQij4olVR-0" target="FBMTSQ7wI23uN15UbV6w-24" edge="1">
          <mxGeometry relative="1" as="geometry" />
        </mxCell>
        <mxCell id="FBMTSQ7wI23uN15UbV6w-34" value="Данні Учнів" style="edgeLabel;html=1;align=center;verticalAlign=middle;resizable=0;points=[];" parent="FBMTSQ7wI23uN15UbV6w-33" vertex="1" connectable="0">
          <mxGeometry x="0.2622" y="1" relative="1" as="geometry">
            <mxPoint x="13" y="-14" as="offset" />
          </mxGeometry>
        </mxCell>
        <mxCell id="uuLFeYMljAVbsYkg28Wi-2" style="edgeStyle=orthogonalEdgeStyle;rounded=0;orthogonalLoop=1;jettySize=auto;html=1;exitX=0;exitY=0.75;exitDx=0;exitDy=0;entryX=1.015;entryY=0.117;entryDx=0;entryDy=0;startArrow=classic;startFill=1;entryPerimeter=0;" parent="hKH5R2ML7ik_y2sRalKR-1" source="SEWDAJe8R1NJQij4olVR-0" target="FBMTSQ7wI23uN15UbV6w-0" edge="1">
          <mxGeometry relative="1" as="geometry">
            <Array as="points">
              <mxPoint x="220" y="355" />
              <mxPoint x="220" y="377" />
            </Array>
          </mxGeometry>
        </mxCell>
        <mxCell id="uuLFeYMljAVbsYkg28Wi-3" value="Данні вчителя" style="edgeLabel;html=1;align=center;verticalAlign=middle;resizable=0;points=[];" parent="uuLFeYMljAVbsYkg28Wi-2" vertex="1" connectable="0">
          <mxGeometry x="0.2864" y="1" relative="1" as="geometry">
            <mxPoint x="24" y="-10" as="offset" />
          </mxGeometry>
        </mxCell>
        <mxCell id="uuLFeYMljAVbsYkg28Wi-4" style="edgeStyle=orthogonalEdgeStyle;rounded=0;orthogonalLoop=1;jettySize=auto;html=1;exitX=0.349;exitY=0.006;exitDx=0;exitDy=0;entryX=0.863;entryY=0.006;entryDx=0;entryDy=0;entryPerimeter=0;startArrow=none;startFill=0;exitPerimeter=0;" parent="hKH5R2ML7ik_y2sRalKR-1" source="SEWDAJe8R1NJQij4olVR-0" target="FBMTSQ7wI23uN15UbV6w-1" edge="1">
          <mxGeometry relative="1" as="geometry" />
        </mxCell>
        <mxCell id="uuLFeYMljAVbsYkg28Wi-5" value="Данні курсу" style="edgeLabel;html=1;align=center;verticalAlign=middle;resizable=0;points=[];" parent="uuLFeYMljAVbsYkg28Wi-4" vertex="1" connectable="0">
          <mxGeometry x="0.6915" y="-3" relative="1" as="geometry">
            <mxPoint x="5" y="-7" as="offset" />
          </mxGeometry>
        </mxCell>
        <mxCell id="SEWDAJe8R1NJQij4olVR-0" value="&lt;span&gt;Система Електронного&lt;/span&gt;&lt;br&gt;&lt;span&gt;Навчання&lt;/span&gt;" style="rounded=0;whiteSpace=wrap;html=1;" parent="hKH5R2ML7ik_y2sRalKR-1" vertex="1">
          <mxGeometry x="360" y="310" width="120" height="60" as="geometry" />
        </mxCell>
        <mxCell id="FBMTSQ7wI23uN15UbV6w-8" style="edgeStyle=orthogonalEdgeStyle;rounded=0;orthogonalLoop=1;jettySize=auto;html=1;exitX=1;exitY=0.5;exitDx=0;exitDy=0;entryX=0.25;entryY=1;entryDx=0;entryDy=0;endArrow=classic;endFill=1;" parent="hKH5R2ML7ik_y2sRalKR-1" source="FBMTSQ7wI23uN15UbV6w-0" target="SEWDAJe8R1NJQij4olVR-0" edge="1">
          <mxGeometry relative="1" as="geometry" />
        </mxCell>
        <mxCell id="FBMTSQ7wI23uN15UbV6w-29" value="Результати Роботи Учнів" style="edgeLabel;html=1;align=center;verticalAlign=middle;resizable=0;points=[];" parent="FBMTSQ7wI23uN15UbV6w-8" vertex="1" connectable="0">
          <mxGeometry x="-0.6725" relative="1" as="geometry">
            <mxPoint x="43" y="-10" as="offset" />
          </mxGeometry>
        </mxCell>
        <mxCell id="FBMTSQ7wI23uN15UbV6w-31" style="edgeStyle=orthogonalEdgeStyle;rounded=0;orthogonalLoop=1;jettySize=auto;html=1;exitX=0.331;exitY=0.994;exitDx=0;exitDy=0;entryX=1.003;entryY=0.839;entryDx=0;entryDy=0;endArrow=classic;endFill=1;entryPerimeter=0;exitPerimeter=0;" parent="hKH5R2ML7ik_y2sRalKR-1" source="SEWDAJe8R1NJQij4olVR-0" target="FBMTSQ7wI23uN15UbV6w-0" edge="1">
          <mxGeometry relative="1" as="geometry" />
        </mxCell>
        <mxCell id="FBMTSQ7wI23uN15UbV6w-32" value="Роботи учнів на перевірку" style="edgeLabel;html=1;align=center;verticalAlign=middle;resizable=0;points=[];" parent="FBMTSQ7wI23uN15UbV6w-31" vertex="1" connectable="0">
          <mxGeometry x="0.5952" y="1" relative="1" as="geometry">
            <mxPoint x="27" y="-10" as="offset" />
          </mxGeometry>
        </mxCell>
        <mxCell id="uuLFeYMljAVbsYkg28Wi-6" style="edgeStyle=orthogonalEdgeStyle;rounded=0;orthogonalLoop=1;jettySize=auto;html=1;exitX=0.432;exitY=0.992;exitDx=0;exitDy=0;entryX=0.876;entryY=1.006;entryDx=0;entryDy=0;startArrow=none;startFill=0;exitPerimeter=0;entryPerimeter=0;" parent="hKH5R2ML7ik_y2sRalKR-1" source="SEWDAJe8R1NJQij4olVR-0" target="FBMTSQ7wI23uN15UbV6w-0" edge="1">
          <mxGeometry relative="1" as="geometry" />
        </mxCell>
        <mxCell id="uuLFeYMljAVbsYkg28Wi-7" value="Данні курсу" style="edgeLabel;html=1;align=center;verticalAlign=middle;resizable=0;points=[];" parent="uuLFeYMljAVbsYkg28Wi-6" vertex="1" connectable="0">
          <mxGeometry x="0.7543" y="-1" relative="1" as="geometry">
            <mxPoint x="25" y="-10" as="offset" />
          </mxGeometry>
        </mxCell>
        <mxCell id="FBMTSQ7wI23uN15UbV6w-0" value="Вчитель" style="rounded=0;whiteSpace=wrap;html=1;" parent="hKH5R2ML7ik_y2sRalKR-1" vertex="1">
          <mxGeometry x="70" y="370" width="120" height="60" as="geometry" />
        </mxCell>
        <mxCell id="FBMTSQ7wI23uN15UbV6w-19" style="edgeStyle=orthogonalEdgeStyle;rounded=0;orthogonalLoop=1;jettySize=auto;html=1;exitX=1;exitY=0.25;exitDx=0;exitDy=0;entryX=0.25;entryY=0;entryDx=0;entryDy=0;endArrow=classic;endFill=1;" parent="hKH5R2ML7ik_y2sRalKR-1" source="FBMTSQ7wI23uN15UbV6w-1" target="SEWDAJe8R1NJQij4olVR-0" edge="1">
          <mxGeometry relative="1" as="geometry" />
        </mxCell>
        <mxCell id="FBMTSQ7wI23uN15UbV6w-21" value="Данні Проходження курсу" style="edgeLabel;html=1;align=center;verticalAlign=middle;resizable=0;points=[];" parent="FBMTSQ7wI23uN15UbV6w-19" vertex="1" connectable="0">
          <mxGeometry x="-0.5632" y="1" relative="1" as="geometry">
            <mxPoint x="39" y="-9" as="offset" />
          </mxGeometry>
        </mxCell>
        <mxCell id="FBMTSQ7wI23uN15UbV6w-22" style="edgeStyle=orthogonalEdgeStyle;rounded=0;orthogonalLoop=1;jettySize=auto;html=1;exitX=0.153;exitY=-0.017;exitDx=0;exitDy=0;entryX=1.008;entryY=0.594;entryDx=0;entryDy=0;entryPerimeter=0;endArrow=classic;endFill=1;exitPerimeter=0;" parent="hKH5R2ML7ik_y2sRalKR-1" source="SEWDAJe8R1NJQij4olVR-0" target="FBMTSQ7wI23uN15UbV6w-1" edge="1">
          <mxGeometry relative="1" as="geometry">
            <Array as="points">
              <mxPoint x="378" y="296" />
              <mxPoint x="320" y="296" />
            </Array>
          </mxGeometry>
        </mxCell>
        <mxCell id="FBMTSQ7wI23uN15UbV6w-23" value="Результати проходження курсу" style="edgeLabel;html=1;align=center;verticalAlign=middle;resizable=0;points=[];" parent="FBMTSQ7wI23uN15UbV6w-22" vertex="1" connectable="0">
          <mxGeometry x="-0.5284" y="-1" relative="1" as="geometry">
            <mxPoint x="-53" y="-9" as="offset" />
          </mxGeometry>
        </mxCell>
        <mxCell id="uuLFeYMljAVbsYkg28Wi-0" style="edgeStyle=orthogonalEdgeStyle;rounded=0;orthogonalLoop=1;jettySize=auto;html=1;exitX=1;exitY=0.75;exitDx=0;exitDy=0;entryX=0;entryY=0.25;entryDx=0;entryDy=0;startArrow=classic;startFill=1;" parent="hKH5R2ML7ik_y2sRalKR-1" source="FBMTSQ7wI23uN15UbV6w-1" target="SEWDAJe8R1NJQij4olVR-0" edge="1">
          <mxGeometry relative="1" as="geometry">
            <Array as="points">
              <mxPoint x="220" y="305" />
              <mxPoint x="220" y="325" />
            </Array>
          </mxGeometry>
        </mxCell>
        <mxCell id="uuLFeYMljAVbsYkg28Wi-1" value="Данні учня" style="edgeLabel;html=1;align=center;verticalAlign=middle;resizable=0;points=[];" parent="uuLFeYMljAVbsYkg28Wi-0" vertex="1" connectable="0">
          <mxGeometry x="-0.1211" relative="1" as="geometry">
            <mxPoint y="-12" as="offset" />
          </mxGeometry>
        </mxCell>
        <mxCell id="uuLFeYMljAVbsYkg28Wi-8" style="edgeStyle=orthogonalEdgeStyle;rounded=0;orthogonalLoop=1;jettySize=auto;html=1;exitX=0.5;exitY=0;exitDx=0;exitDy=0;entryX=0.75;entryY=0;entryDx=0;entryDy=0;startArrow=none;startFill=0;" parent="hKH5R2ML7ik_y2sRalKR-1" source="SEWDAJe8R1NJQij4olVR-0" target="FBMTSQ7wI23uN15UbV6w-1" edge="1">
          <mxGeometry relative="1" as="geometry">
            <Array as="points">
              <mxPoint x="420" y="220" />
              <mxPoint x="160" y="220" />
            </Array>
          </mxGeometry>
        </mxCell>
        <mxCell id="uuLFeYMljAVbsYkg28Wi-9" value="Данні для роботи" style="edgeLabel;html=1;align=center;verticalAlign=middle;resizable=0;points=[];" parent="uuLFeYMljAVbsYkg28Wi-8" vertex="1" connectable="0">
          <mxGeometry x="0.6573" y="-1" relative="1" as="geometry">
            <mxPoint x="33" y="-9" as="offset" />
          </mxGeometry>
        </mxCell>
        <mxCell id="uuLFeYMljAVbsYkg28Wi-12" style="edgeStyle=orthogonalEdgeStyle;rounded=0;orthogonalLoop=1;jettySize=auto;html=1;exitX=0.613;exitY=0.006;exitDx=0;exitDy=0;entryX=0.645;entryY=0.002;entryDx=0;entryDy=0;startArrow=none;startFill=0;exitPerimeter=0;entryPerimeter=0;" parent="hKH5R2ML7ik_y2sRalKR-1" source="SEWDAJe8R1NJQij4olVR-0" target="FBMTSQ7wI23uN15UbV6w-1" edge="1">
          <mxGeometry relative="1" as="geometry">
            <Array as="points">
              <mxPoint x="434" y="200" />
              <mxPoint x="147" y="200" />
            </Array>
          </mxGeometry>
        </mxCell>
        <mxCell id="uuLFeYMljAVbsYkg28Wi-13" value="Данні тесту" style="edgeLabel;html=1;align=center;verticalAlign=middle;resizable=0;points=[];" parent="uuLFeYMljAVbsYkg28Wi-12" vertex="1" connectable="0">
          <mxGeometry x="0.5949" y="-1" relative="1" as="geometry">
            <mxPoint x="30" y="-9" as="offset" />
          </mxGeometry>
        </mxCell>
        <mxCell id="FBMTSQ7wI23uN15UbV6w-1" value="Учень" style="rounded=0;whiteSpace=wrap;html=1;" parent="hKH5R2ML7ik_y2sRalKR-1" vertex="1">
          <mxGeometry x="70" y="260" width="120" height="60" as="geometry" />
        </mxCell>
        <mxCell id="FBMTSQ7wI23uN15UbV6w-24" value="1.&amp;nbsp; &amp;nbsp; &amp;nbsp; Учні" style="html=1;dashed=0;whitespace=wrap;shape=mxgraph.dfd.dataStoreID;align=left;spacingLeft=3;points=[[0,0],[0.5,0],[1,0],[0,0.5],[1,0.5],[0,1],[0.5,1],[1,1]];" parent="hKH5R2ML7ik_y2sRalKR-1" vertex="1">
          <mxGeometry x="570" y="190" width="100" height="30" as="geometry" />
        </mxCell>
        <mxCell id="FBMTSQ7wI23uN15UbV6w-35" style="edgeStyle=orthogonalEdgeStyle;rounded=0;orthogonalLoop=1;jettySize=auto;html=1;exitX=0;exitY=0.5;exitDx=0;exitDy=0;entryX=0.914;entryY=0.006;entryDx=0;entryDy=0;entryPerimeter=0;startArrow=classic;startFill=1;endArrow=classic;endFill=1;" parent="hKH5R2ML7ik_y2sRalKR-1" source="FBMTSQ7wI23uN15UbV6w-25" target="SEWDAJe8R1NJQij4olVR-0" edge="1">
          <mxGeometry relative="1" as="geometry" />
        </mxCell>
        <mxCell id="FBMTSQ7wI23uN15UbV6w-36" value="Данні Вчителів" style="edgeLabel;html=1;align=center;verticalAlign=middle;resizable=0;points=[];" parent="FBMTSQ7wI23uN15UbV6w-35" vertex="1" connectable="0">
          <mxGeometry x="-0.089" relative="1" as="geometry">
            <mxPoint y="-15" as="offset" />
          </mxGeometry>
        </mxCell>
        <mxCell id="FBMTSQ7wI23uN15UbV6w-25" value="2.&amp;nbsp; &amp;nbsp; &amp;nbsp; Вчителі" style="html=1;dashed=0;whitespace=wrap;shape=mxgraph.dfd.dataStoreID;align=left;spacingLeft=3;points=[[0,0],[0.5,0],[1,0],[0,0.5],[1,0.5],[0,1],[0.5,1],[1,1]];" parent="hKH5R2ML7ik_y2sRalKR-1" vertex="1">
          <mxGeometry x="570" y="250" width="100" height="30" as="geometry" />
        </mxCell>
        <mxCell id="FBMTSQ7wI23uN15UbV6w-37" style="edgeStyle=orthogonalEdgeStyle;rounded=0;orthogonalLoop=1;jettySize=auto;html=1;exitX=0;exitY=0.5;exitDx=0;exitDy=0;entryX=1;entryY=0.25;entryDx=0;entryDy=0;startArrow=none;startFill=0;endArrow=classic;endFill=1;" parent="hKH5R2ML7ik_y2sRalKR-1" source="FBMTSQ7wI23uN15UbV6w-26" target="SEWDAJe8R1NJQij4olVR-0" edge="1">
          <mxGeometry relative="1" as="geometry" />
        </mxCell>
        <mxCell id="FBMTSQ7wI23uN15UbV6w-38" value="Данні Курсів" style="edgeLabel;html=1;align=center;verticalAlign=middle;resizable=0;points=[];" parent="FBMTSQ7wI23uN15UbV6w-37" vertex="1" connectable="0">
          <mxGeometry x="0.2519" y="-1" relative="1" as="geometry">
            <mxPoint x="17" y="-14" as="offset" />
          </mxGeometry>
        </mxCell>
        <mxCell id="FBMTSQ7wI23uN15UbV6w-26" value="3.&amp;nbsp; &amp;nbsp; &amp;nbsp; Курси" style="html=1;dashed=0;whitespace=wrap;shape=mxgraph.dfd.dataStoreID;align=left;spacingLeft=3;points=[[0,0],[0.5,0],[1,0],[0,0.5],[1,0.5],[0,1],[0.5,1],[1,1]];" parent="hKH5R2ML7ik_y2sRalKR-1" vertex="1">
          <mxGeometry x="570" y="310" width="100" height="30" as="geometry" />
        </mxCell>
        <mxCell id="FBMTSQ7wI23uN15UbV6w-39" style="edgeStyle=orthogonalEdgeStyle;rounded=0;orthogonalLoop=1;jettySize=auto;html=1;exitX=0;exitY=0.5;exitDx=0;exitDy=0;entryX=1;entryY=0.75;entryDx=0;entryDy=0;startArrow=classic;startFill=1;endArrow=classic;endFill=1;" parent="hKH5R2ML7ik_y2sRalKR-1" edge="1">
          <mxGeometry relative="1" as="geometry">
            <mxPoint x="570" y="385" as="sourcePoint" />
            <mxPoint x="480" y="360" as="targetPoint" />
            <Array as="points">
              <mxPoint x="550" y="385" />
              <mxPoint x="550" y="360" />
            </Array>
          </mxGeometry>
        </mxCell>
        <mxCell id="FBMTSQ7wI23uN15UbV6w-40" value="Роботи Учнів" style="edgeLabel;html=1;align=center;verticalAlign=middle;resizable=0;points=[];" parent="FBMTSQ7wI23uN15UbV6w-39" vertex="1" connectable="0">
          <mxGeometry x="0.4056" relative="1" as="geometry">
            <mxPoint x="15" y="-10" as="offset" />
          </mxGeometry>
        </mxCell>
        <mxCell id="FBMTSQ7wI23uN15UbV6w-27" value="4.&amp;nbsp; &amp;nbsp; &amp;nbsp; Роботи" style="html=1;dashed=0;whitespace=wrap;shape=mxgraph.dfd.dataStoreID;align=left;spacingLeft=3;points=[[0,0],[0.5,0],[1,0],[0,0.5],[1,0.5],[0,1],[0.5,1],[1,1]];" parent="hKH5R2ML7ik_y2sRalKR-1" vertex="1">
          <mxGeometry x="570" y="370" width="100" height="30" as="geometry" />
        </mxCell>
        <mxCell id="FBMTSQ7wI23uN15UbV6w-41" style="edgeStyle=orthogonalEdgeStyle;rounded=0;orthogonalLoop=1;jettySize=auto;html=1;exitX=0;exitY=0.5;exitDx=0;exitDy=0;entryX=0.903;entryY=1.061;entryDx=0;entryDy=0;entryPerimeter=0;startArrow=classic;startFill=1;endArrow=classic;endFill=1;" parent="hKH5R2ML7ik_y2sRalKR-1" source="FBMTSQ7wI23uN15UbV6w-30" target="SEWDAJe8R1NJQij4olVR-0" edge="1">
          <mxGeometry relative="1" as="geometry" />
        </mxCell>
        <mxCell id="FBMTSQ7wI23uN15UbV6w-42" value="Оцінки учнів" style="edgeLabel;html=1;align=center;verticalAlign=middle;resizable=0;points=[];" parent="FBMTSQ7wI23uN15UbV6w-41" vertex="1" connectable="0">
          <mxGeometry x="0.0597" y="1" relative="1" as="geometry">
            <mxPoint x="29" y="-11" as="offset" />
          </mxGeometry>
        </mxCell>
        <mxCell id="FBMTSQ7wI23uN15UbV6w-30" value="5.&amp;nbsp; &amp;nbsp; &amp;nbsp; Оцінки" style="html=1;dashed=0;whitespace=wrap;shape=mxgraph.dfd.dataStoreID;align=left;spacingLeft=3;points=[[0,0],[0.5,0],[1,0],[0,0.5],[1,0.5],[0,1],[0.5,1],[1,1]];" parent="hKH5R2ML7ik_y2sRalKR-1" vertex="1">
          <mxGeometry x="570" y="420" width="100" height="30" as="geometry" />
        </mxCell>
        <mxCell id="wR6wT6cLVUCMxUPMjl7V-0" value="" style="swimlane;fontStyle=0;childLayout=stackLayout;horizontal=1;startSize=30;fillColor=#ffffff;horizontalStack=0;resizeParent=1;resizeParentMax=0;resizeLast=0;collapsible=0;marginBottom=0;swimlaneFillColor=#ffffff;" parent="hKH5R2ML7ik_y2sRalKR-1" vertex="1">
          <mxGeometry x="360" y="310" width="120" height="60" as="geometry" />
        </mxCell>
        <mxCell id="wR6wT6cLVUCMxUPMjl7V-1" value="&lt;font style=&quot;font-size: 9px&quot;&gt;Система Електронного&lt;br&gt;Навчання&lt;/font&gt;" style="text;html=1;strokeColor=none;fillColor=none;align=center;verticalAlign=middle;whiteSpace=wrap;rounded=0;" parent="wR6wT6cLVUCMxUPMjl7V-0" vertex="1">
          <mxGeometry y="30" width="120" height="30" as="geometry" />
        </mxCell>
      </root>
    </mxGraphModel>
  </diagram>
  <diagram id="c59CRsiw0F4DRb6WrvH5" name="DFD 0 level">
    <mxGraphModel dx="1277" dy="754" grid="1" gridSize="10" guides="1" tooltips="1" connect="1" arrows="1" fold="1" page="1" pageScale="1" pageWidth="827" pageHeight="1169" math="0" shadow="0">
      <root>
        <mxCell id="JA7q43vsa-0d6v_2rb22-0" />
        <mxCell id="JA7q43vsa-0d6v_2rb22-1" parent="JA7q43vsa-0d6v_2rb22-0" />
        <mxCell id="oJKxwL67fvfN5VpIOWKQ-1" value="" style="group" parent="JA7q43vsa-0d6v_2rb22-1" vertex="1" connectable="0">
          <mxGeometry x="279.97" y="134.91000000000003" width="120" height="60" as="geometry" />
        </mxCell>
        <mxCell id="GGUhkFGwv5X70z4iVUuU-0" value="" style="swimlane;fontStyle=0;childLayout=stackLayout;horizontal=1;startSize=20;fillColor=#ffffff;horizontalStack=0;resizeParent=1;resizeParentMax=0;resizeLast=0;collapsible=0;marginBottom=0;swimlaneFillColor=#ffffff;" parent="oJKxwL67fvfN5VpIOWKQ-1" vertex="1">
          <mxGeometry width="120" height="60" as="geometry" />
        </mxCell>
        <mxCell id="oJKxwL67fvfN5VpIOWKQ-0" value="&lt;font style=&quot;font-size: 10px&quot;&gt;Управління користувачем&lt;br&gt;1.0&lt;/font&gt;" style="text;html=1;strokeColor=none;fillColor=none;align=center;verticalAlign=middle;whiteSpace=wrap;rounded=0;" parent="oJKxwL67fvfN5VpIOWKQ-1" vertex="1">
          <mxGeometry y="20" width="120" height="40" as="geometry" />
        </mxCell>
        <mxCell id="oJKxwL67fvfN5VpIOWKQ-2" value="" style="group" parent="JA7q43vsa-0d6v_2rb22-1" vertex="1" connectable="0">
          <mxGeometry x="359.97" y="229.94" width="120" height="60" as="geometry" />
        </mxCell>
        <mxCell id="oJKxwL67fvfN5VpIOWKQ-3" value="" style="swimlane;fontStyle=0;childLayout=stackLayout;horizontal=1;startSize=20;fillColor=#ffffff;horizontalStack=0;resizeParent=1;resizeParentMax=0;resizeLast=0;collapsible=0;marginBottom=0;swimlaneFillColor=#ffffff;" parent="oJKxwL67fvfN5VpIOWKQ-2" vertex="1">
          <mxGeometry width="120" height="60" as="geometry" />
        </mxCell>
        <mxCell id="oJKxwL67fvfN5VpIOWKQ-4" value="Запис на курс&lt;br&gt;2.0" style="text;html=1;strokeColor=none;fillColor=none;align=center;verticalAlign=middle;whiteSpace=wrap;rounded=0;" parent="oJKxwL67fvfN5VpIOWKQ-2" vertex="1">
          <mxGeometry y="20" width="120" height="40" as="geometry" />
        </mxCell>
        <mxCell id="oJKxwL67fvfN5VpIOWKQ-5" value="" style="group" parent="JA7q43vsa-0d6v_2rb22-1" vertex="1" connectable="0">
          <mxGeometry x="419.97" y="324.91" width="120" height="60" as="geometry" />
        </mxCell>
        <mxCell id="oJKxwL67fvfN5VpIOWKQ-6" value="" style="swimlane;fontStyle=0;childLayout=stackLayout;horizontal=1;startSize=20;fillColor=#ffffff;horizontalStack=0;resizeParent=1;resizeParentMax=0;resizeLast=0;collapsible=0;marginBottom=0;swimlaneFillColor=#ffffff;" parent="oJKxwL67fvfN5VpIOWKQ-5" vertex="1">
          <mxGeometry width="120" height="60" as="geometry" />
        </mxCell>
        <mxCell id="oJKxwL67fvfN5VpIOWKQ-7" value="Проходження курсу&lt;br&gt;3.0" style="text;html=1;strokeColor=none;fillColor=none;align=center;verticalAlign=middle;whiteSpace=wrap;rounded=0;" parent="oJKxwL67fvfN5VpIOWKQ-5" vertex="1">
          <mxGeometry y="20" width="120" height="40" as="geometry" />
        </mxCell>
        <mxCell id="oJKxwL67fvfN5VpIOWKQ-53" style="edgeStyle=orthogonalEdgeStyle;rounded=0;orthogonalLoop=1;jettySize=auto;html=1;exitX=1;exitY=0.25;exitDx=0;exitDy=0;entryX=-0.003;entryY=0.405;entryDx=0;entryDy=0;entryPerimeter=0;startArrow=classic;startFill=1;" parent="JA7q43vsa-0d6v_2rb22-1" source="oJKxwL67fvfN5VpIOWKQ-46" target="oJKxwL67fvfN5VpIOWKQ-0" edge="1">
          <mxGeometry relative="1" as="geometry" />
        </mxCell>
        <mxCell id="oJKxwL67fvfN5VpIOWKQ-54" value="Данні учня" style="edgeLabel;html=1;align=center;verticalAlign=middle;resizable=0;points=[];" parent="oJKxwL67fvfN5VpIOWKQ-53" vertex="1" connectable="0">
          <mxGeometry x="0.144" y="2" relative="1" as="geometry">
            <mxPoint x="-13" y="14" as="offset" />
          </mxGeometry>
        </mxCell>
        <mxCell id="pGyIgQCCi6wcOeSCzbsa-4" style="edgeStyle=orthogonalEdgeStyle;rounded=0;orthogonalLoop=1;jettySize=auto;html=1;exitX=1;exitY=0.5;exitDx=0;exitDy=0;entryX=0.25;entryY=0;entryDx=0;entryDy=0;" parent="JA7q43vsa-0d6v_2rb22-1" source="oJKxwL67fvfN5VpIOWKQ-46" target="oJKxwL67fvfN5VpIOWKQ-3" edge="1">
          <mxGeometry relative="1" as="geometry">
            <Array as="points">
              <mxPoint x="190" y="219.94" />
              <mxPoint x="390" y="219.94" />
            </Array>
          </mxGeometry>
        </mxCell>
        <mxCell id="oJKxwL67fvfN5VpIOWKQ-46" value="Учень" style="rounded=0;whiteSpace=wrap;html=1;" parent="JA7q43vsa-0d6v_2rb22-1" vertex="1">
          <mxGeometry x="69.97" y="194.91000000000003" width="120" height="60" as="geometry" />
        </mxCell>
        <mxCell id="oJKxwL67fvfN5VpIOWKQ-55" style="edgeStyle=orthogonalEdgeStyle;rounded=0;orthogonalLoop=1;jettySize=auto;html=1;exitX=0.75;exitY=0;exitDx=0;exitDy=0;entryX=0;entryY=0.75;entryDx=0;entryDy=0;startArrow=classic;startFill=1;" parent="JA7q43vsa-0d6v_2rb22-1" source="oJKxwL67fvfN5VpIOWKQ-47" target="oJKxwL67fvfN5VpIOWKQ-0" edge="1">
          <mxGeometry relative="1" as="geometry">
            <Array as="points">
              <mxPoint x="159.97" y="284.91" />
              <mxPoint x="249.97" y="284.91" />
              <mxPoint x="249.97" y="184.91000000000003" />
            </Array>
          </mxGeometry>
        </mxCell>
        <mxCell id="oJKxwL67fvfN5VpIOWKQ-56" value="Данні вчителя" style="edgeLabel;html=1;align=center;verticalAlign=middle;resizable=0;points=[];" parent="oJKxwL67fvfN5VpIOWKQ-55" vertex="1" connectable="0">
          <mxGeometry x="0.2876" y="1" relative="1" as="geometry">
            <mxPoint x="-49" y="34" as="offset" />
          </mxGeometry>
        </mxCell>
        <mxCell id="oJKxwL67fvfN5VpIOWKQ-58" style="edgeStyle=orthogonalEdgeStyle;rounded=0;orthogonalLoop=1;jettySize=auto;html=1;entryX=0.005;entryY=0.112;entryDx=0;entryDy=0;startArrow=none;startFill=0;entryPerimeter=0;" parent="JA7q43vsa-0d6v_2rb22-1" target="oJKxwL67fvfN5VpIOWKQ-6" edge="1">
          <mxGeometry relative="1" as="geometry">
            <mxPoint x="189.97" y="331.91" as="sourcePoint" />
          </mxGeometry>
        </mxCell>
        <mxCell id="oJKxwL67fvfN5VpIOWKQ-59" value="Результати Роботи Учнів" style="edgeLabel;html=1;align=center;verticalAlign=middle;resizable=0;points=[];" parent="oJKxwL67fvfN5VpIOWKQ-58" vertex="1" connectable="0">
          <mxGeometry x="0.4823" y="-2" relative="1" as="geometry">
            <mxPoint x="-102" y="-14" as="offset" />
          </mxGeometry>
        </mxCell>
        <mxCell id="oJKxwL67fvfN5VpIOWKQ-47" value="Вчитель" style="rounded=0;whiteSpace=wrap;html=1;" parent="JA7q43vsa-0d6v_2rb22-1" vertex="1">
          <mxGeometry x="69.97" y="304.91" width="120" height="60" as="geometry" />
        </mxCell>
        <mxCell id="oJKxwL67fvfN5VpIOWKQ-48" value="1.&amp;nbsp; &amp;nbsp; &amp;nbsp; Учні" style="html=1;dashed=0;whitespace=wrap;shape=mxgraph.dfd.dataStoreID;align=left;spacingLeft=3;points=[[0,0],[0.5,0],[1,0],[0,0.5],[1,0.5],[0,1],[0.5,1],[1,1]];" parent="JA7q43vsa-0d6v_2rb22-1" vertex="1">
          <mxGeometry x="660" y="139.94" width="100" height="30" as="geometry" />
        </mxCell>
        <mxCell id="pGyIgQCCi6wcOeSCzbsa-10" style="edgeStyle=orthogonalEdgeStyle;rounded=0;orthogonalLoop=1;jettySize=auto;html=1;exitX=0;exitY=0.5;exitDx=0;exitDy=0;entryX=1;entryY=0.5;entryDx=0;entryDy=0;fontSize=10;startArrow=classic;startFill=1;" parent="JA7q43vsa-0d6v_2rb22-1" source="oJKxwL67fvfN5VpIOWKQ-49" target="oJKxwL67fvfN5VpIOWKQ-0" edge="1">
          <mxGeometry relative="1" as="geometry" />
        </mxCell>
        <mxCell id="pGyIgQCCi6wcOeSCzbsa-11" value="&lt;span style=&quot;font-size: 11px;&quot;&gt;Данні Вчителів&lt;/span&gt;" style="edgeLabel;html=1;align=center;verticalAlign=middle;resizable=0;points=[];fontSize=11;" parent="pGyIgQCCi6wcOeSCzbsa-10" vertex="1" connectable="0">
          <mxGeometry x="-0.2716" y="-1" relative="1" as="geometry">
            <mxPoint x="49" y="-14" as="offset" />
          </mxGeometry>
        </mxCell>
        <mxCell id="oJKxwL67fvfN5VpIOWKQ-49" value="2.&amp;nbsp; &amp;nbsp; &amp;nbsp; Вчителі" style="html=1;dashed=0;whitespace=wrap;shape=mxgraph.dfd.dataStoreID;align=left;spacingLeft=3;points=[[0,0],[0.5,0],[1,0],[0,0.5],[1,0.5],[0,1],[0.5,1],[1,1]];" parent="JA7q43vsa-0d6v_2rb22-1" vertex="1">
          <mxGeometry x="660" y="199.94" width="100" height="30" as="geometry" />
        </mxCell>
        <mxCell id="pGyIgQCCi6wcOeSCzbsa-12" style="edgeStyle=orthogonalEdgeStyle;rounded=0;orthogonalLoop=1;jettySize=auto;html=1;exitX=-0.005;exitY=0.229;exitDx=0;exitDy=0;fontSize=11;startArrow=none;startFill=0;exitPerimeter=0;entryX=1;entryY=0.433;entryDx=0;entryDy=0;entryPerimeter=0;" parent="JA7q43vsa-0d6v_2rb22-1" source="oJKxwL67fvfN5VpIOWKQ-50" target="oJKxwL67fvfN5VpIOWKQ-4" edge="1">
          <mxGeometry relative="1" as="geometry">
            <mxPoint x="480" y="274.94" as="targetPoint" />
          </mxGeometry>
        </mxCell>
        <mxCell id="pGyIgQCCi6wcOeSCzbsa-13" value="Данні Курсів" style="edgeLabel;html=1;align=center;verticalAlign=middle;resizable=0;points=[];fontSize=11;" parent="pGyIgQCCi6wcOeSCzbsa-12" vertex="1" connectable="0">
          <mxGeometry x="-0.1153" relative="1" as="geometry">
            <mxPoint x="34" y="-10" as="offset" />
          </mxGeometry>
        </mxCell>
        <mxCell id="pGyIgQCCi6wcOeSCzbsa-14" style="edgeStyle=orthogonalEdgeStyle;rounded=0;orthogonalLoop=1;jettySize=auto;html=1;exitX=0.004;exitY=0.771;exitDx=0;exitDy=0;entryX=1;entryY=0.25;entryDx=0;entryDy=0;fontSize=11;startArrow=none;startFill=0;exitPerimeter=0;" parent="JA7q43vsa-0d6v_2rb22-1" source="oJKxwL67fvfN5VpIOWKQ-50" target="oJKxwL67fvfN5VpIOWKQ-6" edge="1">
          <mxGeometry relative="1" as="geometry" />
        </mxCell>
        <mxCell id="pGyIgQCCi6wcOeSCzbsa-15" value="Данні Курсів" style="edgeLabel;html=1;align=center;verticalAlign=middle;resizable=0;points=[];fontSize=11;" parent="pGyIgQCCi6wcOeSCzbsa-14" vertex="1" connectable="0">
          <mxGeometry x="-0.4864" y="-1" relative="1" as="geometry">
            <mxPoint y="-7" as="offset" />
          </mxGeometry>
        </mxCell>
        <mxCell id="oJKxwL67fvfN5VpIOWKQ-50" value="3.&amp;nbsp; &amp;nbsp; &amp;nbsp; Курси" style="html=1;dashed=0;whitespace=wrap;shape=mxgraph.dfd.dataStoreID;align=left;spacingLeft=3;points=[[0,0],[0.5,0],[1,0],[0,0.5],[1,0.5],[0,1],[0.5,1],[1,1]];" parent="JA7q43vsa-0d6v_2rb22-1" vertex="1">
          <mxGeometry x="660" y="259.94" width="100" height="30" as="geometry" />
        </mxCell>
        <mxCell id="pGyIgQCCi6wcOeSCzbsa-16" style="edgeStyle=orthogonalEdgeStyle;rounded=0;orthogonalLoop=1;jettySize=auto;html=1;exitX=0;exitY=0.5;exitDx=0;exitDy=0;entryX=1;entryY=0.5;entryDx=0;entryDy=0;fontSize=11;startArrow=classic;startFill=1;" parent="JA7q43vsa-0d6v_2rb22-1" source="oJKxwL67fvfN5VpIOWKQ-51" target="oJKxwL67fvfN5VpIOWKQ-7" edge="1">
          <mxGeometry relative="1" as="geometry">
            <Array as="points">
              <mxPoint x="640" y="334.94" />
              <mxPoint x="640" y="364.94" />
            </Array>
          </mxGeometry>
        </mxCell>
        <mxCell id="pGyIgQCCi6wcOeSCzbsa-17" value="Роботи Учнів" style="edgeLabel;html=1;align=center;verticalAlign=middle;resizable=0;points=[];fontSize=11;" parent="pGyIgQCCi6wcOeSCzbsa-16" vertex="1" connectable="0">
          <mxGeometry x="0.5235" y="1" relative="1" as="geometry">
            <mxPoint x="14" y="-11" as="offset" />
          </mxGeometry>
        </mxCell>
        <mxCell id="oJKxwL67fvfN5VpIOWKQ-51" value="4.&amp;nbsp; &amp;nbsp; &amp;nbsp; Роботи" style="html=1;dashed=0;whitespace=wrap;shape=mxgraph.dfd.dataStoreID;align=left;spacingLeft=3;points=[[0,0],[0.5,0],[1,0],[0,0.5],[1,0.5],[0,1],[0.5,1],[1,1]];" parent="JA7q43vsa-0d6v_2rb22-1" vertex="1">
          <mxGeometry x="660" y="319.94" width="100" height="30" as="geometry" />
        </mxCell>
        <mxCell id="pGyIgQCCi6wcOeSCzbsa-18" style="edgeStyle=orthogonalEdgeStyle;rounded=0;orthogonalLoop=1;jettySize=auto;html=1;exitX=0;exitY=0.5;exitDx=0;exitDy=0;entryX=0.75;entryY=1;entryDx=0;entryDy=0;fontSize=11;startArrow=classic;startFill=1;" parent="JA7q43vsa-0d6v_2rb22-1" source="oJKxwL67fvfN5VpIOWKQ-52" target="oJKxwL67fvfN5VpIOWKQ-7" edge="1">
          <mxGeometry relative="1" as="geometry">
            <Array as="points">
              <mxPoint x="640" y="384.94" />
              <mxPoint x="640" y="404.94" />
              <mxPoint x="510" y="404.94" />
            </Array>
          </mxGeometry>
        </mxCell>
        <mxCell id="pGyIgQCCi6wcOeSCzbsa-19" value="Оцінки учнів" style="edgeLabel;html=1;align=center;verticalAlign=middle;resizable=0;points=[];fontSize=11;" parent="pGyIgQCCi6wcOeSCzbsa-18" vertex="1" connectable="0">
          <mxGeometry x="0.3923" y="-1" relative="1" as="geometry">
            <mxPoint x="36" y="-8" as="offset" />
          </mxGeometry>
        </mxCell>
        <mxCell id="oJKxwL67fvfN5VpIOWKQ-52" value="5.&amp;nbsp; &amp;nbsp; &amp;nbsp; Оцінки" style="html=1;dashed=0;whitespace=wrap;shape=mxgraph.dfd.dataStoreID;align=left;spacingLeft=3;points=[[0,0],[0.5,0],[1,0],[0,0.5],[1,0.5],[0,1],[0.5,1],[1,1]];" parent="JA7q43vsa-0d6v_2rb22-1" vertex="1">
          <mxGeometry x="660" y="369.94" width="100" height="30" as="geometry" />
        </mxCell>
        <mxCell id="oJKxwL67fvfN5VpIOWKQ-60" style="edgeStyle=orthogonalEdgeStyle;rounded=0;orthogonalLoop=1;jettySize=auto;html=1;exitX=0;exitY=0.25;exitDx=0;exitDy=0;entryX=1.012;entryY=0.839;entryDx=0;entryDy=0;entryPerimeter=0;startArrow=none;startFill=0;" parent="JA7q43vsa-0d6v_2rb22-1" source="oJKxwL67fvfN5VpIOWKQ-7" target="oJKxwL67fvfN5VpIOWKQ-47" edge="1">
          <mxGeometry relative="1" as="geometry" />
        </mxCell>
        <mxCell id="oJKxwL67fvfN5VpIOWKQ-61" value="Роботи учнів на перевірку" style="edgeLabel;html=1;align=center;verticalAlign=middle;resizable=0;points=[];" parent="oJKxwL67fvfN5VpIOWKQ-60" vertex="1" connectable="0">
          <mxGeometry x="0.2229" relative="1" as="geometry">
            <mxPoint x="-1" y="-10" as="offset" />
          </mxGeometry>
        </mxCell>
        <mxCell id="oJKxwL67fvfN5VpIOWKQ-62" style="edgeStyle=orthogonalEdgeStyle;rounded=0;orthogonalLoop=1;jettySize=auto;html=1;exitX=0;exitY=0.5;exitDx=0;exitDy=0;entryX=1.001;entryY=0.088;entryDx=0;entryDy=0;entryPerimeter=0;startArrow=none;startFill=0;" parent="JA7q43vsa-0d6v_2rb22-1" source="oJKxwL67fvfN5VpIOWKQ-4" target="oJKxwL67fvfN5VpIOWKQ-47" edge="1">
          <mxGeometry relative="1" as="geometry" />
        </mxCell>
        <mxCell id="oJKxwL67fvfN5VpIOWKQ-63" value="Данні курсу" style="edgeLabel;html=1;align=center;verticalAlign=middle;resizable=0;points=[];" parent="oJKxwL67fvfN5VpIOWKQ-62" vertex="1" connectable="0">
          <mxGeometry x="-0.5126" y="-2" relative="1" as="geometry">
            <mxPoint x="11" y="-8" as="offset" />
          </mxGeometry>
        </mxCell>
        <mxCell id="oJKxwL67fvfN5VpIOWKQ-64" style="edgeStyle=orthogonalEdgeStyle;rounded=0;orthogonalLoop=1;jettySize=auto;html=1;exitX=0;exitY=0.75;exitDx=0;exitDy=0;entryX=0.75;entryY=1;entryDx=0;entryDy=0;startArrow=none;startFill=0;" parent="JA7q43vsa-0d6v_2rb22-1" source="oJKxwL67fvfN5VpIOWKQ-7" target="oJKxwL67fvfN5VpIOWKQ-47" edge="1">
          <mxGeometry relative="1" as="geometry">
            <Array as="points">
              <mxPoint x="159.97" y="374.91" />
            </Array>
          </mxGeometry>
        </mxCell>
        <mxCell id="oJKxwL67fvfN5VpIOWKQ-65" value="Данні курсу" style="edgeLabel;html=1;align=center;verticalAlign=middle;resizable=0;points=[];" parent="oJKxwL67fvfN5VpIOWKQ-64" vertex="1" connectable="0">
          <mxGeometry x="-0.3023" relative="1" as="geometry">
            <mxPoint x="44" y="-10" as="offset" />
          </mxGeometry>
        </mxCell>
        <mxCell id="oJKxwL67fvfN5VpIOWKQ-66" style="edgeStyle=orthogonalEdgeStyle;rounded=0;orthogonalLoop=1;jettySize=auto;html=1;exitX=0;exitY=0;exitDx=0;exitDy=0;entryX=1;entryY=0.75;entryDx=0;entryDy=0;startArrow=none;startFill=0;" parent="JA7q43vsa-0d6v_2rb22-1" source="oJKxwL67fvfN5VpIOWKQ-4" target="oJKxwL67fvfN5VpIOWKQ-46" edge="1">
          <mxGeometry relative="1" as="geometry">
            <Array as="points">
              <mxPoint x="359.97" y="239.91000000000003" />
            </Array>
          </mxGeometry>
        </mxCell>
        <mxCell id="oJKxwL67fvfN5VpIOWKQ-67" value="Данні курсу" style="edgeLabel;html=1;align=center;verticalAlign=middle;resizable=0;points=[];" parent="oJKxwL67fvfN5VpIOWKQ-66" vertex="1" connectable="0">
          <mxGeometry x="-0.2299" relative="1" as="geometry">
            <mxPoint x="19" y="-10" as="offset" />
          </mxGeometry>
        </mxCell>
        <mxCell id="oJKxwL67fvfN5VpIOWKQ-68" style="edgeStyle=orthogonalEdgeStyle;rounded=0;orthogonalLoop=1;jettySize=auto;html=1;exitX=0.25;exitY=0;exitDx=0;exitDy=0;entryX=0.75;entryY=1;entryDx=0;entryDy=0;startArrow=none;startFill=0;" parent="JA7q43vsa-0d6v_2rb22-1" source="oJKxwL67fvfN5VpIOWKQ-6" target="oJKxwL67fvfN5VpIOWKQ-46" edge="1">
          <mxGeometry relative="1" as="geometry">
            <Array as="points">
              <mxPoint x="449.97" y="304.91" />
              <mxPoint x="259.97" y="304.91" />
              <mxPoint x="259.97" y="264.91" />
              <mxPoint x="159.97" y="264.91" />
            </Array>
          </mxGeometry>
        </mxCell>
        <mxCell id="oJKxwL67fvfN5VpIOWKQ-69" value="Данні курсу" style="edgeLabel;html=1;align=center;verticalAlign=middle;resizable=0;points=[];labelBackgroundColor=none;" parent="oJKxwL67fvfN5VpIOWKQ-68" vertex="1" connectable="0">
          <mxGeometry x="-0.2644" y="1" relative="1" as="geometry">
            <mxPoint x="-21" y="-8" as="offset" />
          </mxGeometry>
        </mxCell>
        <mxCell id="oJKxwL67fvfN5VpIOWKQ-70" style="edgeStyle=orthogonalEdgeStyle;rounded=0;orthogonalLoop=1;jettySize=auto;html=1;exitX=0.25;exitY=1;exitDx=0;exitDy=0;entryX=0.5;entryY=1;entryDx=0;entryDy=0;startArrow=none;startFill=0;" parent="JA7q43vsa-0d6v_2rb22-1" source="oJKxwL67fvfN5VpIOWKQ-7" target="oJKxwL67fvfN5VpIOWKQ-46" edge="1">
          <mxGeometry relative="1" as="geometry">
            <Array as="points">
              <mxPoint x="449.97" y="394.91" />
              <mxPoint x="59.97" y="394.91" />
              <mxPoint x="59.97" y="284.91" />
              <mxPoint x="129.97" y="284.91" />
            </Array>
          </mxGeometry>
        </mxCell>
        <mxCell id="oJKxwL67fvfN5VpIOWKQ-71" value="Данні тесту" style="edgeLabel;html=1;align=center;verticalAlign=middle;resizable=0;points=[];" parent="oJKxwL67fvfN5VpIOWKQ-70" vertex="1" connectable="0">
          <mxGeometry x="-0.6409" y="3" relative="1" as="geometry">
            <mxPoint x="13" y="-13" as="offset" />
          </mxGeometry>
        </mxCell>
        <mxCell id="oJKxwL67fvfN5VpIOWKQ-72" style="edgeStyle=orthogonalEdgeStyle;rounded=0;orthogonalLoop=1;jettySize=auto;html=1;exitX=0.5;exitY=1;exitDx=0;exitDy=0;entryX=0.356;entryY=0.994;entryDx=0;entryDy=0;entryPerimeter=0;startArrow=none;startFill=0;" parent="JA7q43vsa-0d6v_2rb22-1" source="oJKxwL67fvfN5VpIOWKQ-7" target="oJKxwL67fvfN5VpIOWKQ-46" edge="1">
          <mxGeometry relative="1" as="geometry">
            <Array as="points">
              <mxPoint x="479.97" y="414.91" />
              <mxPoint x="49.97" y="414.91" />
              <mxPoint x="49.97" y="274.91" />
              <mxPoint x="112.97" y="274.91" />
            </Array>
          </mxGeometry>
        </mxCell>
        <mxCell id="oJKxwL67fvfN5VpIOWKQ-73" value="Данні для роботи" style="edgeLabel;html=1;align=center;verticalAlign=middle;resizable=0;points=[];" parent="oJKxwL67fvfN5VpIOWKQ-72" vertex="1" connectable="0">
          <mxGeometry x="-0.5635" y="3" relative="1" as="geometry">
            <mxPoint x="4" y="-13" as="offset" />
          </mxGeometry>
        </mxCell>
        <mxCell id="pGyIgQCCi6wcOeSCzbsa-0" style="edgeStyle=orthogonalEdgeStyle;rounded=0;orthogonalLoop=1;jettySize=auto;html=1;exitX=0.584;exitY=-0.002;exitDx=0;exitDy=0;entryX=0.75;entryY=0;entryDx=0;entryDy=0;exitPerimeter=0;" parent="JA7q43vsa-0d6v_2rb22-1" source="oJKxwL67fvfN5VpIOWKQ-6" target="oJKxwL67fvfN5VpIOWKQ-46" edge="1">
          <mxGeometry relative="1" as="geometry">
            <Array as="points">
              <mxPoint x="490" y="124.94" />
              <mxPoint x="160" y="124.94" />
            </Array>
          </mxGeometry>
        </mxCell>
        <mxCell id="pGyIgQCCi6wcOeSCzbsa-1" value="Данні Проходження курсу" style="edgeLabel;html=1;align=center;verticalAlign=middle;resizable=0;points=[];" parent="pGyIgQCCi6wcOeSCzbsa-0" vertex="1" connectable="0">
          <mxGeometry x="-0.2503" y="-1" relative="1" as="geometry">
            <mxPoint x="-38" y="-14" as="offset" />
          </mxGeometry>
        </mxCell>
        <mxCell id="pGyIgQCCi6wcOeSCzbsa-2" style="edgeStyle=orthogonalEdgeStyle;rounded=0;orthogonalLoop=1;jettySize=auto;html=1;exitX=0.5;exitY=0;exitDx=0;exitDy=0;entryX=0.75;entryY=0;entryDx=0;entryDy=0;" parent="JA7q43vsa-0d6v_2rb22-1" source="oJKxwL67fvfN5VpIOWKQ-46" target="oJKxwL67fvfN5VpIOWKQ-6" edge="1">
          <mxGeometry relative="1" as="geometry">
            <Array as="points">
              <mxPoint x="130" y="99.94" />
              <mxPoint x="510" y="99.94" />
            </Array>
          </mxGeometry>
        </mxCell>
        <mxCell id="pGyIgQCCi6wcOeSCzbsa-3" value="Результати проходження курсу" style="edgeLabel;html=1;align=center;verticalAlign=middle;resizable=0;points=[];" parent="pGyIgQCCi6wcOeSCzbsa-2" vertex="1" connectable="0">
          <mxGeometry x="0.0992" relative="1" as="geometry">
            <mxPoint y="-10" as="offset" />
          </mxGeometry>
        </mxCell>
        <mxCell id="pGyIgQCCi6wcOeSCzbsa-5" value="Запит для приєднання" style="edgeLabel;html=1;align=center;verticalAlign=middle;resizable=0;points=[];" parent="JA7q43vsa-0d6v_2rb22-1" vertex="1" connectable="0">
          <mxGeometry x="319.9985714285714" y="209.94289521120544" as="geometry" />
        </mxCell>
        <mxCell id="pGyIgQCCi6wcOeSCzbsa-6" style="edgeStyle=orthogonalEdgeStyle;rounded=0;orthogonalLoop=1;jettySize=auto;html=1;entryX=0;entryY=0.5;entryDx=0;entryDy=0;fontSize=10;startArrow=classic;startFill=1;exitX=1;exitY=0;exitDx=0;exitDy=0;" parent="JA7q43vsa-0d6v_2rb22-1" source="oJKxwL67fvfN5VpIOWKQ-0" target="oJKxwL67fvfN5VpIOWKQ-48" edge="1">
          <mxGeometry relative="1" as="geometry">
            <mxPoint x="420" y="159.94" as="sourcePoint" />
            <Array as="points">
              <mxPoint x="470" y="154.94" />
              <mxPoint x="470" y="154.94" />
            </Array>
          </mxGeometry>
        </mxCell>
        <mxCell id="pGyIgQCCi6wcOeSCzbsa-9" value="Данні Учнів" style="edgeLabel;html=1;align=center;verticalAlign=middle;resizable=0;points=[];fontSize=11;" parent="pGyIgQCCi6wcOeSCzbsa-6" vertex="1" connectable="0">
          <mxGeometry x="0.4596" y="1" relative="1" as="geometry">
            <mxPoint x="15" y="-9" as="offset" />
          </mxGeometry>
        </mxCell>
        <mxCell id="BT-oRgce6KLrrBIUL0fD-1" style="edgeStyle=orthogonalEdgeStyle;rounded=0;orthogonalLoop=1;jettySize=auto;html=1;exitX=0;exitY=0.75;exitDx=0;exitDy=0;entryX=0.88;entryY=0.021;entryDx=0;entryDy=0;entryPerimeter=0;" parent="JA7q43vsa-0d6v_2rb22-1" source="oJKxwL67fvfN5VpIOWKQ-4" target="oJKxwL67fvfN5VpIOWKQ-47" edge="1">
          <mxGeometry relative="1" as="geometry">
            <Array as="points">
              <mxPoint x="360" y="290" />
              <mxPoint x="176" y="290" />
            </Array>
          </mxGeometry>
        </mxCell>
        <mxCell id="BT-oRgce6KLrrBIUL0fD-2" value="Запит учная" style="edgeLabel;html=1;align=center;verticalAlign=middle;resizable=0;points=[];labelBackgroundColor=none;" parent="BT-oRgce6KLrrBIUL0fD-1" vertex="1" connectable="0">
          <mxGeometry x="-0.3989" y="1" relative="1" as="geometry">
            <mxPoint x="3" y="-11" as="offset" />
          </mxGeometry>
        </mxCell>
      </root>
    </mxGraphModel>
  </diagram>
  <diagram id="plt8d_sxDeZyuui24CYg" name="DFD 1 level Запис на курс">
    <mxGraphModel dx="795" dy="673" grid="1" gridSize="10" guides="1" tooltips="1" connect="1" arrows="1" fold="1" page="1" pageScale="1" pageWidth="850" pageHeight="1100" math="0" shadow="0">
      <root>
        <mxCell id="t6rGRcpKgLmdTCXzisMB-0" />
        <mxCell id="t6rGRcpKgLmdTCXzisMB-1" parent="t6rGRcpKgLmdTCXzisMB-0" />
        <mxCell id="GIOPFRW0dqyKuugpdbSm-0" value="" style="group" parent="t6rGRcpKgLmdTCXzisMB-1" vertex="1" connectable="0">
          <mxGeometry x="240.00000000000003" y="90.00000000000003" width="120" height="60" as="geometry" />
        </mxCell>
        <mxCell id="GIOPFRW0dqyKuugpdbSm-1" value="" style="swimlane;fontStyle=0;childLayout=stackLayout;horizontal=1;startSize=20;fillColor=#ffffff;horizontalStack=0;resizeParent=1;resizeParentMax=0;resizeLast=0;collapsible=0;marginBottom=0;swimlaneFillColor=#ffffff;" parent="GIOPFRW0dqyKuugpdbSm-0" vertex="1">
          <mxGeometry width="120" height="60" as="geometry" />
        </mxCell>
        <mxCell id="GIOPFRW0dqyKuugpdbSm-2" value="Пошук курсу&lt;br&gt;2.1" style="text;html=1;strokeColor=none;fillColor=none;align=center;verticalAlign=middle;whiteSpace=wrap;rounded=0;" parent="GIOPFRW0dqyKuugpdbSm-0" vertex="1">
          <mxGeometry y="20" width="120" height="40" as="geometry" />
        </mxCell>
        <mxCell id="GIOPFRW0dqyKuugpdbSm-3" value="" style="group" parent="t6rGRcpKgLmdTCXzisMB-1" vertex="1" connectable="0">
          <mxGeometry x="350" y="270" width="120" height="60" as="geometry" />
        </mxCell>
        <mxCell id="GIOPFRW0dqyKuugpdbSm-4" value="" style="swimlane;fontStyle=0;childLayout=stackLayout;horizontal=1;startSize=20;fillColor=#ffffff;horizontalStack=0;resizeParent=1;resizeParentMax=0;resizeLast=0;collapsible=0;marginBottom=0;swimlaneFillColor=#ffffff;" parent="GIOPFRW0dqyKuugpdbSm-3" vertex="1">
          <mxGeometry width="120" height="60" as="geometry" />
        </mxCell>
        <mxCell id="GIOPFRW0dqyKuugpdbSm-5" value="Реєстрація на курс&lt;br&gt;2.3" style="text;html=1;strokeColor=none;fillColor=none;align=center;verticalAlign=middle;whiteSpace=wrap;rounded=0;" parent="GIOPFRW0dqyKuugpdbSm-3" vertex="1">
          <mxGeometry y="20" width="120" height="40" as="geometry" />
        </mxCell>
        <mxCell id="GIOPFRW0dqyKuugpdbSm-6" value="" style="group" parent="t6rGRcpKgLmdTCXzisMB-1" vertex="1" connectable="0">
          <mxGeometry x="305" y="180.00000000000003" width="120" height="60" as="geometry" />
        </mxCell>
        <mxCell id="GIOPFRW0dqyKuugpdbSm-7" value="" style="swimlane;fontStyle=0;childLayout=stackLayout;horizontal=1;startSize=20;fillColor=#ffffff;horizontalStack=0;resizeParent=1;resizeParentMax=0;resizeLast=0;collapsible=0;marginBottom=0;swimlaneFillColor=#ffffff;" parent="GIOPFRW0dqyKuugpdbSm-6" vertex="1">
          <mxGeometry width="120" height="60" as="geometry" />
        </mxCell>
        <mxCell id="GIOPFRW0dqyKuugpdbSm-8" value="Вибір курсу&lt;br&gt;2.2" style="text;html=1;strokeColor=none;fillColor=none;align=center;verticalAlign=middle;whiteSpace=wrap;rounded=0;" parent="GIOPFRW0dqyKuugpdbSm-6" vertex="1">
          <mxGeometry y="20" width="120" height="40" as="geometry" />
        </mxCell>
        <mxCell id="tMMdut3EL5Lb1zkWdPG_-5" style="edgeStyle=orthogonalEdgeStyle;rounded=0;orthogonalLoop=1;jettySize=auto;html=1;exitX=1;exitY=0.25;exitDx=0;exitDy=0;entryX=0;entryY=0.25;entryDx=0;entryDy=0;fontSize=11;startArrow=none;startFill=0;" parent="t6rGRcpKgLmdTCXzisMB-1" source="C_J5zAQHwmAlsE8PuoF6-0" target="GIOPFRW0dqyKuugpdbSm-2" edge="1">
          <mxGeometry relative="1" as="geometry" />
        </mxCell>
        <mxCell id="HB538Tjw_mGZ2e7UGJlU-0" value="Данні для пошуку" style="edgeLabel;html=1;align=center;verticalAlign=middle;resizable=0;points=[];fontSize=11;" parent="tMMdut3EL5Lb1zkWdPG_-5" vertex="1" connectable="0">
          <mxGeometry x="-0.1583" y="-1" relative="1" as="geometry">
            <mxPoint y="-9" as="offset" />
          </mxGeometry>
        </mxCell>
        <mxCell id="HB538Tjw_mGZ2e7UGJlU-1" style="edgeStyle=orthogonalEdgeStyle;rounded=0;orthogonalLoop=1;jettySize=auto;html=1;exitX=1;exitY=0.5;exitDx=0;exitDy=0;entryX=0;entryY=0.25;entryDx=0;entryDy=0;fontSize=11;startArrow=none;startFill=0;" parent="t6rGRcpKgLmdTCXzisMB-1" source="C_J5zAQHwmAlsE8PuoF6-0" target="GIOPFRW0dqyKuugpdbSm-8" edge="1">
          <mxGeometry relative="1" as="geometry" />
        </mxCell>
        <mxCell id="HB538Tjw_mGZ2e7UGJlU-2" value="Данні якій курс вибрано" style="edgeLabel;html=1;align=center;verticalAlign=middle;resizable=0;points=[];fontSize=11;labelBackgroundColor=none;" parent="HB538Tjw_mGZ2e7UGJlU-1" vertex="1" connectable="0">
          <mxGeometry x="-0.3072" y="-1" relative="1" as="geometry">
            <mxPoint x="17" y="-9" as="offset" />
          </mxGeometry>
        </mxCell>
        <mxCell id="HB538Tjw_mGZ2e7UGJlU-3" style="edgeStyle=orthogonalEdgeStyle;rounded=0;orthogonalLoop=1;jettySize=auto;html=1;exitX=1;exitY=0.75;exitDx=0;exitDy=0;entryX=0;entryY=0.25;entryDx=0;entryDy=0;fontSize=11;startArrow=none;startFill=0;" parent="t6rGRcpKgLmdTCXzisMB-1" source="C_J5zAQHwmAlsE8PuoF6-0" target="GIOPFRW0dqyKuugpdbSm-5" edge="1">
          <mxGeometry relative="1" as="geometry">
            <Array as="points">
              <mxPoint x="200" y="225" />
              <mxPoint x="200" y="300" />
            </Array>
          </mxGeometry>
        </mxCell>
        <mxCell id="HB538Tjw_mGZ2e7UGJlU-4" value="Данні Учня" style="edgeLabel;html=1;align=center;verticalAlign=middle;resizable=0;points=[];fontSize=11;" parent="HB538Tjw_mGZ2e7UGJlU-3" vertex="1" connectable="0">
          <mxGeometry x="0.2065" y="-2" relative="1" as="geometry">
            <mxPoint x="-5" y="-12" as="offset" />
          </mxGeometry>
        </mxCell>
        <mxCell id="C_J5zAQHwmAlsE8PuoF6-0" value="Учень" style="rounded=0;whiteSpace=wrap;html=1;" parent="t6rGRcpKgLmdTCXzisMB-1" vertex="1">
          <mxGeometry x="50" y="180.00000000000003" width="120" height="60" as="geometry" />
        </mxCell>
        <mxCell id="tMMdut3EL5Lb1zkWdPG_-0" value="1.&amp;nbsp; &amp;nbsp; &amp;nbsp; Учні" style="html=1;dashed=0;whitespace=wrap;shape=mxgraph.dfd.dataStoreID;align=left;spacingLeft=3;points=[[0,0],[0.5,0],[1,0],[0,0.5],[1,0.5],[0,1],[0.5,1],[1,1]];" parent="t6rGRcpKgLmdTCXzisMB-1" vertex="1">
          <mxGeometry x="570" y="295" width="100" height="30" as="geometry" />
        </mxCell>
        <mxCell id="tMMdut3EL5Lb1zkWdPG_-2" style="edgeStyle=orthogonalEdgeStyle;rounded=0;orthogonalLoop=1;jettySize=auto;html=1;exitX=-0.003;exitY=0.767;exitDx=0;exitDy=0;entryX=1;entryY=0.25;entryDx=0;entryDy=0;fontSize=11;startArrow=none;startFill=0;exitPerimeter=0;" parent="t6rGRcpKgLmdTCXzisMB-1" source="tMMdut3EL5Lb1zkWdPG_-1" target="GIOPFRW0dqyKuugpdbSm-8" edge="1">
          <mxGeometry relative="1" as="geometry">
            <Array as="points">
              <mxPoint x="490" y="253" />
              <mxPoint x="490" y="210" />
            </Array>
          </mxGeometry>
        </mxCell>
        <mxCell id="fCFG7MAHyQf-VhTl6H_M-1" value="Данні Курсів" style="edgeLabel;html=1;align=center;verticalAlign=middle;resizable=0;points=[];fontSize=11;labelBackgroundColor=none;" parent="tMMdut3EL5Lb1zkWdPG_-2" vertex="1" connectable="0">
          <mxGeometry x="-0.6744" y="-2" relative="1" as="geometry">
            <mxPoint x="-7" y="-6" as="offset" />
          </mxGeometry>
        </mxCell>
        <mxCell id="tMMdut3EL5Lb1zkWdPG_-3" style="edgeStyle=orthogonalEdgeStyle;rounded=0;orthogonalLoop=1;jettySize=auto;html=1;exitX=0.007;exitY=0.267;exitDx=0;exitDy=0;entryX=1;entryY=0.25;entryDx=0;entryDy=0;fontSize=11;startArrow=none;startFill=0;exitPerimeter=0;" parent="t6rGRcpKgLmdTCXzisMB-1" source="tMMdut3EL5Lb1zkWdPG_-1" target="GIOPFRW0dqyKuugpdbSm-2" edge="1">
          <mxGeometry relative="1" as="geometry">
            <Array as="points">
              <mxPoint x="500" y="238" />
              <mxPoint x="500" y="120" />
            </Array>
          </mxGeometry>
        </mxCell>
        <mxCell id="fCFG7MAHyQf-VhTl6H_M-0" value="Данні Курсів" style="edgeLabel;html=1;align=center;verticalAlign=middle;resizable=0;points=[];fontSize=11;labelBackgroundColor=none;" parent="tMMdut3EL5Lb1zkWdPG_-3" vertex="1" connectable="0">
          <mxGeometry x="-0.0977" relative="1" as="geometry">
            <mxPoint x="34" y="70" as="offset" />
          </mxGeometry>
        </mxCell>
        <mxCell id="tMMdut3EL5Lb1zkWdPG_-1" value="3.&amp;nbsp; &amp;nbsp; &amp;nbsp; Курси" style="html=1;dashed=0;whitespace=wrap;shape=mxgraph.dfd.dataStoreID;align=left;spacingLeft=3;points=[[0,0],[0.5,0],[1,0],[0,0.5],[1,0.5],[0,1],[0.5,1],[1,1]];" parent="t6rGRcpKgLmdTCXzisMB-1" vertex="1">
          <mxGeometry x="570" y="230" width="100" height="30" as="geometry" />
        </mxCell>
        <mxCell id="tMMdut3EL5Lb1zkWdPG_-4" style="edgeStyle=orthogonalEdgeStyle;rounded=0;orthogonalLoop=1;jettySize=auto;html=1;exitX=1;exitY=0.5;exitDx=0;exitDy=0;entryX=0;entryY=0.5;entryDx=0;entryDy=0;fontSize=11;startArrow=none;startFill=0;" parent="t6rGRcpKgLmdTCXzisMB-1" source="GIOPFRW0dqyKuugpdbSm-5" target="tMMdut3EL5Lb1zkWdPG_-0" edge="1">
          <mxGeometry relative="1" as="geometry" />
        </mxCell>
        <mxCell id="uFFER-JzRBcNxzhdrVx2-0" value="Данні Учнів" style="edgeLabel;html=1;align=center;verticalAlign=middle;resizable=0;points=[];fontSize=11;" parent="tMMdut3EL5Lb1zkWdPG_-4" vertex="1" connectable="0">
          <mxGeometry x="-0.3378" relative="1" as="geometry">
            <mxPoint x="10" y="-10" as="offset" />
          </mxGeometry>
        </mxCell>
        <mxCell id="1n5ZRiTokLys9nuOI8Gq-0" style="edgeStyle=orthogonalEdgeStyle;rounded=0;orthogonalLoop=1;jettySize=auto;html=1;exitX=0;exitY=0;exitDx=0;exitDy=0;entryX=0.824;entryY=-0.017;entryDx=0;entryDy=0;entryPerimeter=0;" parent="t6rGRcpKgLmdTCXzisMB-1" source="GIOPFRW0dqyKuugpdbSm-2" target="C_J5zAQHwmAlsE8PuoF6-0" edge="1">
          <mxGeometry relative="1" as="geometry">
            <Array as="points">
              <mxPoint x="149" y="110" />
            </Array>
          </mxGeometry>
        </mxCell>
        <mxCell id="1n5ZRiTokLys9nuOI8Gq-1" value="Знайдені курси" style="edgeLabel;html=1;align=center;verticalAlign=middle;resizable=0;points=[];" parent="1n5ZRiTokLys9nuOI8Gq-0" vertex="1" connectable="0">
          <mxGeometry x="-0.218" y="-1" relative="1" as="geometry">
            <mxPoint x="13" y="-9" as="offset" />
          </mxGeometry>
        </mxCell>
        <mxCell id="1n5ZRiTokLys9nuOI8Gq-2" style="edgeStyle=orthogonalEdgeStyle;rounded=0;orthogonalLoop=1;jettySize=auto;html=1;exitX=1;exitY=0;exitDx=0;exitDy=0;entryX=0.1;entryY=0;entryDx=0;entryDy=0;entryPerimeter=0;" parent="t6rGRcpKgLmdTCXzisMB-1" source="GIOPFRW0dqyKuugpdbSm-2" target="tMMdut3EL5Lb1zkWdPG_-1" edge="1">
          <mxGeometry relative="1" as="geometry">
            <Array as="points">
              <mxPoint x="580" y="110" />
            </Array>
          </mxGeometry>
        </mxCell>
        <mxCell id="1n5ZRiTokLys9nuOI8Gq-3" value="Данні для пошуку" style="edgeLabel;html=1;align=center;verticalAlign=middle;resizable=0;points=[];" parent="1n5ZRiTokLys9nuOI8Gq-2" vertex="1" connectable="0">
          <mxGeometry x="-0.679" y="2" relative="1" as="geometry">
            <mxPoint x="-4" y="-8" as="offset" />
          </mxGeometry>
        </mxCell>
        <mxCell id="1n5ZRiTokLys9nuOI8Gq-4" style="edgeStyle=orthogonalEdgeStyle;rounded=0;orthogonalLoop=1;jettySize=auto;html=1;exitX=1.001;exitY=0.154;exitDx=0;exitDy=0;entryX=0.11;entryY=0.02;entryDx=0;entryDy=0;entryPerimeter=0;exitPerimeter=0;" parent="t6rGRcpKgLmdTCXzisMB-1" source="GIOPFRW0dqyKuugpdbSm-4" target="tMMdut3EL5Lb1zkWdPG_-0" edge="1">
          <mxGeometry relative="1" as="geometry">
            <Array as="points">
              <mxPoint x="581" y="279" />
            </Array>
          </mxGeometry>
        </mxCell>
        <mxCell id="1n5ZRiTokLys9nuOI8Gq-6" value="Данні регестрації" style="edgeLabel;html=1;align=center;verticalAlign=middle;resizable=0;points=[];" parent="1n5ZRiTokLys9nuOI8Gq-4" vertex="1" connectable="0">
          <mxGeometry x="0.2926" y="2" relative="1" as="geometry">
            <mxPoint x="-25" y="-7" as="offset" />
          </mxGeometry>
        </mxCell>
        <mxCell id="1n5ZRiTokLys9nuOI8Gq-7" style="edgeStyle=orthogonalEdgeStyle;rounded=0;orthogonalLoop=1;jettySize=auto;html=1;exitX=1.003;exitY=0.88;exitDx=0;exitDy=0;entryX=-0.022;entryY=0.947;entryDx=0;entryDy=0;entryPerimeter=0;exitPerimeter=0;" parent="t6rGRcpKgLmdTCXzisMB-1" source="GIOPFRW0dqyKuugpdbSm-8" target="tMMdut3EL5Lb1zkWdPG_-1" edge="1">
          <mxGeometry relative="1" as="geometry">
            <Array as="points">
              <mxPoint x="480" y="235" />
              <mxPoint x="480" y="258" />
            </Array>
          </mxGeometry>
        </mxCell>
        <mxCell id="1n5ZRiTokLys9nuOI8Gq-8" value="Данні якій &lt;br&gt;курс вибрали" style="edgeLabel;html=1;align=center;verticalAlign=middle;resizable=0;points=[];labelBackgroundColor=none;" parent="1n5ZRiTokLys9nuOI8Gq-7" vertex="1" connectable="0">
          <mxGeometry x="-0.234" y="1" relative="1" as="geometry">
            <mxPoint x="-36" y="10" as="offset" />
          </mxGeometry>
        </mxCell>
      </root>
    </mxGraphModel>
  </diagram>
  <diagram id="GG8BGSP4RDuWLW5aJ0Cx" name="ER idef1x">
    <mxGraphModel dx="2104" dy="754" grid="1" gridSize="10" guides="1" tooltips="1" connect="1" arrows="1" fold="1" page="1" pageScale="1" pageWidth="827" pageHeight="1169" math="0" shadow="0">
      <root>
        <mxCell id="M5Q-_NAFfz96J0xsekTk-0" />
        <mxCell id="M5Q-_NAFfz96J0xsekTk-1" parent="M5Q-_NAFfz96J0xsekTk-0" />
        <mxCell id="M5Q-_NAFfz96J0xsekTk-2" value="Учні" style="swimlane;childLayout=stackLayout;horizontal=1;startSize=30;horizontalStack=0;rounded=1;fontSize=14;fontStyle=0;strokeWidth=2;resizeParent=0;resizeLast=1;shadow=0;dashed=0;align=center;" parent="M5Q-_NAFfz96J0xsekTk-1" vertex="1">
          <mxGeometry x="-160" y="120" width="160" height="160" as="geometry" />
        </mxCell>
        <mxCell id="M5Q-_NAFfz96J0xsekTk-3" value="+ID&#xa;+ПІБ&#xa;+Дата народження&#xa;+Курси&#xa;" style="align=left;strokeColor=none;fillColor=none;spacingLeft=4;fontSize=12;verticalAlign=top;resizable=0;rotatable=0;part=1;" parent="M5Q-_NAFfz96J0xsekTk-2" vertex="1">
          <mxGeometry y="30" width="160" height="130" as="geometry" />
        </mxCell>
        <mxCell id="M5Q-_NAFfz96J0xsekTk-4" value="Вчителі" style="swimlane;childLayout=stackLayout;horizontal=1;startSize=30;horizontalStack=0;rounded=1;fontSize=14;fontStyle=0;strokeWidth=2;resizeParent=0;resizeLast=1;shadow=0;dashed=0;align=center;" parent="M5Q-_NAFfz96J0xsekTk-1" vertex="1">
          <mxGeometry x="-60" y="380" width="160" height="140" as="geometry" />
        </mxCell>
        <mxCell id="M5Q-_NAFfz96J0xsekTk-5" value="+ID&#xa;+ПІБ&#xa;+Дата народження&#xa;+Посада&#xa;+Викладає" style="align=left;strokeColor=none;fillColor=none;spacingLeft=4;fontSize=12;verticalAlign=top;resizable=0;rotatable=0;part=1;" parent="M5Q-_NAFfz96J0xsekTk-4" vertex="1">
          <mxGeometry y="30" width="160" height="110" as="geometry" />
        </mxCell>
        <mxCell id="M5Q-_NAFfz96J0xsekTk-6" value="Курси" style="swimlane;childLayout=stackLayout;horizontal=1;startSize=30;horizontalStack=0;rounded=1;fontSize=14;fontStyle=0;strokeWidth=2;resizeParent=0;resizeLast=1;shadow=0;dashed=0;align=center;" parent="M5Q-_NAFfz96J0xsekTk-1" vertex="1">
          <mxGeometry x="314" y="224.5" width="160" height="150" as="geometry" />
        </mxCell>
        <mxCell id="M5Q-_NAFfz96J0xsekTk-7" value="+ID&#xa;+Назва&#xa;+Навчальний матеріал&#xa;+Завбання" style="align=left;strokeColor=none;fillColor=none;spacingLeft=4;fontSize=12;verticalAlign=top;resizable=0;rotatable=0;part=1;" parent="M5Q-_NAFfz96J0xsekTk-6" vertex="1">
          <mxGeometry y="30" width="160" height="120" as="geometry" />
        </mxCell>
        <mxCell id="P6oPCw2PSUmDSZFc0YF1-7" style="edgeStyle=orthogonalEdgeStyle;rounded=0;orthogonalLoop=1;jettySize=auto;html=1;exitX=1.001;exitY=0.186;exitDx=0;exitDy=0;entryX=0.998;entryY=0.088;entryDx=0;entryDy=0;entryPerimeter=0;endArrow=ERmandOne;endFill=0;startArrow=ERmandOne;startFill=0;exitPerimeter=0;" parent="M5Q-_NAFfz96J0xsekTk-1" source="M5Q-_NAFfz96J0xsekTk-9" target="IUSq3kSglHlG3lrHTqUh-3" edge="1">
          <mxGeometry relative="1" as="geometry">
            <Array as="points">
              <mxPoint x="514" y="487" />
              <mxPoint x="514" y="395" />
              <mxPoint x="764" y="395" />
              <mxPoint x="764" y="263" />
            </Array>
          </mxGeometry>
        </mxCell>
        <mxCell id="M5Q-_NAFfz96J0xsekTk-8" value="Роботи" style="swimlane;childLayout=stackLayout;horizontal=1;startSize=30;horizontalStack=0;rounded=1;fontSize=14;fontStyle=0;strokeWidth=2;resizeParent=0;resizeLast=1;shadow=0;dashed=0;align=center;" parent="M5Q-_NAFfz96J0xsekTk-1" vertex="1">
          <mxGeometry x="314" y="434.5" width="160" height="150" as="geometry" />
        </mxCell>
        <mxCell id="M5Q-_NAFfz96J0xsekTk-9" value="+ID&#xa;+Завдання&#xa;+ID Учня&#xa;+Дата здачі" style="align=left;strokeColor=none;fillColor=none;spacingLeft=4;fontSize=12;verticalAlign=top;resizable=0;rotatable=0;part=1;" parent="M5Q-_NAFfz96J0xsekTk-8" vertex="1">
          <mxGeometry y="30" width="160" height="120" as="geometry" />
        </mxCell>
        <mxCell id="vPFDQDNjsCHzIPnCpRHG-5" value="Оцінки" style="swimlane;childLayout=stackLayout;horizontal=1;startSize=30;horizontalStack=0;rounded=1;fontSize=14;fontStyle=0;strokeWidth=2;resizeParent=0;resizeLast=1;shadow=0;dashed=0;align=center;" parent="M5Q-_NAFfz96J0xsekTk-1" vertex="1">
          <mxGeometry x="574" y="434.5" width="160" height="120" as="geometry" />
        </mxCell>
        <mxCell id="vPFDQDNjsCHzIPnCpRHG-6" value="+ID&#xa;+Оцінка&#xa;+Id of Робота" style="align=left;strokeColor=none;fillColor=none;spacingLeft=4;fontSize=12;verticalAlign=top;resizable=0;rotatable=0;part=1;" parent="vPFDQDNjsCHzIPnCpRHG-5" vertex="1">
          <mxGeometry y="30" width="160" height="90" as="geometry" />
        </mxCell>
        <mxCell id="IUSq3kSglHlG3lrHTqUh-2" value="Завдання" style="swimlane;childLayout=stackLayout;horizontal=1;startSize=30;horizontalStack=0;rounded=1;fontSize=14;fontStyle=0;strokeWidth=2;resizeParent=0;resizeLast=1;shadow=0;dashed=0;align=center;" parent="M5Q-_NAFfz96J0xsekTk-1" vertex="1">
          <mxGeometry x="574" y="222" width="160" height="150" as="geometry" />
        </mxCell>
        <mxCell id="IUSq3kSglHlG3lrHTqUh-3" value="+ID&#xa;+Опис&#xa;+Відповіді" style="align=left;strokeColor=none;fillColor=none;spacingLeft=4;fontSize=12;verticalAlign=top;resizable=0;rotatable=0;part=1;" parent="IUSq3kSglHlG3lrHTqUh-2" vertex="1">
          <mxGeometry y="30" width="160" height="120" as="geometry" />
        </mxCell>
        <mxCell id="P6oPCw2PSUmDSZFc0YF1-1" value="" style="edgeStyle=entityRelationEdgeStyle;fontSize=12;html=1;endArrow=ERoneToMany;rounded=0;exitX=1.002;exitY=0.644;exitDx=0;exitDy=0;exitPerimeter=0;entryX=-0.003;entryY=0.102;entryDx=0;entryDy=0;entryPerimeter=0;" parent="M5Q-_NAFfz96J0xsekTk-1" source="M5Q-_NAFfz96J0xsekTk-5" target="M5Q-_NAFfz96J0xsekTk-7" edge="1">
          <mxGeometry width="100" height="100" relative="1" as="geometry">
            <mxPoint x="223.6799999999999" y="424.50000000000006" as="sourcePoint" />
            <mxPoint x="314.00000000000006" y="469.94" as="targetPoint" />
          </mxGeometry>
        </mxCell>
        <mxCell id="P6oPCw2PSUmDSZFc0YF1-2" value="Навчальний матеріал" style="swimlane;childLayout=stackLayout;horizontal=1;startSize=30;horizontalStack=0;rounded=1;fontSize=14;fontStyle=0;strokeWidth=2;resizeParent=0;resizeLast=1;shadow=0;dashed=0;align=center;" parent="M5Q-_NAFfz96J0xsekTk-1" vertex="1">
          <mxGeometry x="574" y="32" width="160" height="150" as="geometry" />
        </mxCell>
        <mxCell id="P6oPCw2PSUmDSZFc0YF1-3" value="+ID&#xa;+Текст&#xa;+Відео" style="align=left;strokeColor=none;fillColor=none;spacingLeft=4;fontSize=12;verticalAlign=top;resizable=0;rotatable=0;part=1;" parent="P6oPCw2PSUmDSZFc0YF1-2" vertex="1">
          <mxGeometry y="30" width="160" height="120" as="geometry" />
        </mxCell>
        <mxCell id="P6oPCw2PSUmDSZFc0YF1-4" value="" style="edgeStyle=entityRelationEdgeStyle;fontSize=12;html=1;endArrow=ERoneToMany;rounded=0;exitX=1.002;exitY=0.357;exitDx=0;exitDy=0;exitPerimeter=0;entryX=-0.002;entryY=0.095;entryDx=0;entryDy=0;entryPerimeter=0;" parent="M5Q-_NAFfz96J0xsekTk-1" source="M5Q-_NAFfz96J0xsekTk-7" target="P6oPCw2PSUmDSZFc0YF1-3" edge="1">
          <mxGeometry width="100" height="100" relative="1" as="geometry">
            <mxPoint x="444" y="39.50000000000006" as="sourcePoint" />
            <mxPoint x="534.32" y="84.94000000000011" as="targetPoint" />
          </mxGeometry>
        </mxCell>
        <mxCell id="P6oPCw2PSUmDSZFc0YF1-5" value="" style="edgeStyle=entityRelationEdgeStyle;fontSize=12;html=1;endArrow=ERoneToMany;rounded=0;exitX=0.998;exitY=0.471;exitDx=0;exitDy=0;exitPerimeter=0;entryX=-0.005;entryY=0.111;entryDx=0;entryDy=0;entryPerimeter=0;" parent="M5Q-_NAFfz96J0xsekTk-1" source="M5Q-_NAFfz96J0xsekTk-7" target="IUSq3kSglHlG3lrHTqUh-3" edge="1">
          <mxGeometry width="100" height="100" relative="1" as="geometry">
            <mxPoint x="484.31999999999994" y="307.3399999999999" as="sourcePoint" />
            <mxPoint x="583.6800000000001" y="83.39999999999986" as="targetPoint" />
          </mxGeometry>
        </mxCell>
        <mxCell id="P6oPCw2PSUmDSZFc0YF1-8" value="" style="edgeStyle=entityRelationEdgeStyle;fontSize=12;html=1;endArrow=ERmandOne;startArrow=ERmandOne;rounded=0;entryX=-0.003;entryY=0.354;entryDx=0;entryDy=0;entryPerimeter=0;exitX=1;exitY=0.25;exitDx=0;exitDy=0;" parent="M5Q-_NAFfz96J0xsekTk-1" source="M5Q-_NAFfz96J0xsekTk-2" target="M5Q-_NAFfz96J0xsekTk-9" edge="1">
          <mxGeometry width="100" height="100" relative="1" as="geometry">
            <mxPoint x="240" y="660" as="sourcePoint" />
            <mxPoint x="340" y="560" as="targetPoint" />
          </mxGeometry>
        </mxCell>
        <mxCell id="P6oPCw2PSUmDSZFc0YF1-9" value="" style="edgeStyle=entityRelationEdgeStyle;fontSize=12;html=1;endArrow=ERmandOne;startArrow=ERmandOne;rounded=0;entryX=-0.004;entryY=0.445;entryDx=0;entryDy=0;entryPerimeter=0;exitX=0.999;exitY=0.08;exitDx=0;exitDy=0;exitPerimeter=0;" parent="M5Q-_NAFfz96J0xsekTk-1" source="M5Q-_NAFfz96J0xsekTk-9" target="vPFDQDNjsCHzIPnCpRHG-6" edge="1">
          <mxGeometry width="100" height="100" relative="1" as="geometry">
            <mxPoint x="500" y="270" as="sourcePoint" />
            <mxPoint x="589.52" y="602.48" as="targetPoint" />
          </mxGeometry>
        </mxCell>
        <mxCell id="H35dg0eFyoeGxG1CpvoM-0" value="Курси Учня" style="swimlane;childLayout=stackLayout;horizontal=1;startSize=30;horizontalStack=0;rounded=1;fontSize=14;fontStyle=0;strokeWidth=2;resizeParent=0;resizeLast=1;shadow=0;dashed=0;align=center;" parent="M5Q-_NAFfz96J0xsekTk-1" vertex="1">
          <mxGeometry x="70" y="10" width="160" height="160" as="geometry" />
        </mxCell>
        <mxCell id="H35dg0eFyoeGxG1CpvoM-1" value="+ID&#xa;+ID Учня&#xa;+ID Курса" style="align=left;strokeColor=none;fillColor=none;spacingLeft=4;fontSize=12;verticalAlign=top;resizable=0;rotatable=0;part=1;" parent="H35dg0eFyoeGxG1CpvoM-0" vertex="1">
          <mxGeometry y="30" width="160" height="130" as="geometry" />
        </mxCell>
        <mxCell id="H35dg0eFyoeGxG1CpvoM-2" value="" style="edgeStyle=entityRelationEdgeStyle;fontSize=12;html=1;endArrow=ERoneToMany;rounded=0;exitX=0.999;exitY=0.1;exitDx=0;exitDy=0;exitPerimeter=0;entryX=-0.006;entryY=0.209;entryDx=0;entryDy=0;entryPerimeter=0;" parent="M5Q-_NAFfz96J0xsekTk-1" source="M5Q-_NAFfz96J0xsekTk-3" target="H35dg0eFyoeGxG1CpvoM-1" edge="1">
          <mxGeometry width="100" height="100" relative="1" as="geometry">
            <mxPoint x="110.31999999999994" y="490.8399999999999" as="sourcePoint" />
            <mxPoint x="323.52" y="276.7400000000001" as="targetPoint" />
          </mxGeometry>
        </mxCell>
        <mxCell id="H35dg0eFyoeGxG1CpvoM-4" value="" style="edgeStyle=entityRelationEdgeStyle;fontSize=12;html=1;endArrow=ERoneToMany;rounded=0;exitX=0;exitY=0.25;exitDx=0;exitDy=0;entryX=0.994;entryY=0.305;entryDx=0;entryDy=0;entryPerimeter=0;" parent="M5Q-_NAFfz96J0xsekTk-1" source="M5Q-_NAFfz96J0xsekTk-6" target="H35dg0eFyoeGxG1CpvoM-1" edge="1">
          <mxGeometry width="100" height="100" relative="1" as="geometry">
            <mxPoint x="110.31999999999994" y="490.8399999999999" as="sourcePoint" />
            <mxPoint x="323.52" y="276.7400000000001" as="targetPoint" />
          </mxGeometry>
        </mxCell>
      </root>
    </mxGraphModel>
  </diagram>
  <diagram id="E9klei7SwYWci2WTlseh" name="BPMN">
    <mxGraphModel dx="1965" dy="1160" grid="1" gridSize="10" guides="1" tooltips="1" connect="1" arrows="1" fold="1" page="1" pageScale="1" pageWidth="827" pageHeight="1169" math="0" shadow="0">
      <root>
        <mxCell id="0" />
        <mxCell id="1" parent="0" />
        <mxCell id="8Fc49vDhlUz9kEKMXbQt-1" value="Запис на курси" style="swimlane;html=1;childLayout=stackLayout;resizeParent=1;resizeParentMax=0;horizontal=0;startSize=20;horizontalStack=0;fillColor=#fff2cc;strokeColor=#d6b656;" vertex="1" parent="1">
          <mxGeometry x="60" y="260" width="1680" height="490" as="geometry" />
        </mxCell>
        <mxCell id="8Fc49vDhlUz9kEKMXbQt-11" style="edgeStyle=orthogonalEdgeStyle;rounded=0;orthogonalLoop=1;jettySize=auto;html=1;exitX=0.5;exitY=1;exitDx=0;exitDy=0;exitPerimeter=0;" edge="1" parent="8Fc49vDhlUz9kEKMXbQt-1" source="8Fc49vDhlUz9kEKMXbQt-5" target="8Fc49vDhlUz9kEKMXbQt-10">
          <mxGeometry relative="1" as="geometry" />
        </mxCell>
        <mxCell id="8Fc49vDhlUz9kEKMXbQt-23" style="edgeStyle=orthogonalEdgeStyle;rounded=0;orthogonalLoop=1;jettySize=auto;html=1;exitX=0.5;exitY=0;exitDx=0;exitDy=0;exitPerimeter=0;entryX=0.5;entryY=1;entryDx=0;entryDy=0;entryPerimeter=0;" edge="1" parent="8Fc49vDhlUz9kEKMXbQt-1" source="8Fc49vDhlUz9kEKMXbQt-20" target="8Fc49vDhlUz9kEKMXbQt-24">
          <mxGeometry relative="1" as="geometry">
            <mxPoint x="430" y="170" as="targetPoint" />
          </mxGeometry>
        </mxCell>
        <mxCell id="8Fc49vDhlUz9kEKMXbQt-64" style="edgeStyle=orthogonalEdgeStyle;rounded=0;orthogonalLoop=1;jettySize=auto;html=1;exitX=1;exitY=0.5;exitDx=0;exitDy=0;exitPerimeter=0;entryX=0;entryY=0.5;entryDx=0;entryDy=0;entryPerimeter=0;" edge="1" parent="8Fc49vDhlUz9kEKMXbQt-1" source="8Fc49vDhlUz9kEKMXbQt-57" target="8Fc49vDhlUz9kEKMXbQt-63">
          <mxGeometry relative="1" as="geometry" />
        </mxCell>
        <mxCell id="8Fc49vDhlUz9kEKMXbQt-49" style="edgeStyle=orthogonalEdgeStyle;rounded=0;orthogonalLoop=1;jettySize=auto;html=1;exitX=0.5;exitY=1;exitDx=0;exitDy=0;exitPerimeter=0;entryX=0.5;entryY=0;entryDx=0;entryDy=0;entryPerimeter=0;" edge="1" parent="8Fc49vDhlUz9kEKMXbQt-1" source="8Fc49vDhlUz9kEKMXbQt-46" target="8Fc49vDhlUz9kEKMXbQt-48">
          <mxGeometry relative="1" as="geometry" />
        </mxCell>
        <mxCell id="8Fc49vDhlUz9kEKMXbQt-56" style="edgeStyle=orthogonalEdgeStyle;rounded=0;orthogonalLoop=1;jettySize=auto;html=1;exitX=0.5;exitY=0;exitDx=0;exitDy=0;exitPerimeter=0;entryX=0.5;entryY=1;entryDx=0;entryDy=0;entryPerimeter=0;" edge="1" parent="8Fc49vDhlUz9kEKMXbQt-1" source="8Fc49vDhlUz9kEKMXbQt-54" target="8Fc49vDhlUz9kEKMXbQt-53">
          <mxGeometry relative="1" as="geometry" />
        </mxCell>
        <mxCell id="8Fc49vDhlUz9kEKMXbQt-66" style="edgeStyle=orthogonalEdgeStyle;rounded=0;orthogonalLoop=1;jettySize=auto;html=1;exitX=1;exitY=0.5;exitDx=0;exitDy=0;exitPerimeter=0;entryX=0.5;entryY=0;entryDx=0;entryDy=0;entryPerimeter=0;" edge="1" parent="8Fc49vDhlUz9kEKMXbQt-1" source="8Fc49vDhlUz9kEKMXbQt-53" target="8Fc49vDhlUz9kEKMXbQt-65">
          <mxGeometry relative="1" as="geometry" />
        </mxCell>
        <mxCell id="8Fc49vDhlUz9kEKMXbQt-2" value="Студент" style="swimlane;html=1;startSize=20;horizontal=0;fillColor=#dae8fc;strokeColor=#6c8ebf;" vertex="1" parent="8Fc49vDhlUz9kEKMXbQt-1">
          <mxGeometry x="20" width="1660" height="230" as="geometry" />
        </mxCell>
        <mxCell id="8Fc49vDhlUz9kEKMXbQt-5" value="Вибір фільтрів" style="points=[[0.25,0,0],[0.5,0,0],[0.75,0,0],[1,0.25,0],[1,0.5,0],[1,0.75,0],[0.75,1,0],[0.5,1,0],[0.25,1,0],[0,0.75,0],[0,0.5,0],[0,0.25,0]];shape=mxgraph.bpmn.task;whiteSpace=wrap;rectStyle=rounded;size=10;taskMarker=abstract;" vertex="1" parent="8Fc49vDhlUz9kEKMXbQt-2">
          <mxGeometry x="170" y="50" width="120" height="80" as="geometry" />
        </mxCell>
        <mxCell id="8Fc49vDhlUz9kEKMXbQt-8" style="edgeStyle=orthogonalEdgeStyle;rounded=0;orthogonalLoop=1;jettySize=auto;html=1;exitX=1;exitY=0.5;exitDx=0;exitDy=0;exitPerimeter=0;entryX=0;entryY=0.5;entryDx=0;entryDy=0;entryPerimeter=0;" edge="1" parent="8Fc49vDhlUz9kEKMXbQt-2" source="8Fc49vDhlUz9kEKMXbQt-6" target="8Fc49vDhlUz9kEKMXbQt-5">
          <mxGeometry relative="1" as="geometry" />
        </mxCell>
        <mxCell id="8Fc49vDhlUz9kEKMXbQt-6" value="Вибрано меню &lt;br&gt;пошуку" style="points=[[0.145,0.145,0],[0.5,0,0],[0.855,0.145,0],[1,0.5,0],[0.855,0.855,0],[0.5,1,0],[0.145,0.855,0],[0,0.5,0]];shape=mxgraph.bpmn.event;html=1;verticalLabelPosition=bottom;labelBackgroundColor=#ffffff;verticalAlign=top;align=center;perimeter=ellipsePerimeter;outlineConnect=0;aspect=fixed;outline=standard;symbol=general;" vertex="1" parent="8Fc49vDhlUz9kEKMXbQt-2">
          <mxGeometry x="60" y="65" width="50" height="50" as="geometry" />
        </mxCell>
        <mxCell id="8Fc49vDhlUz9kEKMXbQt-47" style="edgeStyle=orthogonalEdgeStyle;rounded=0;orthogonalLoop=1;jettySize=auto;html=1;exitX=1;exitY=0.5;exitDx=0;exitDy=0;exitPerimeter=0;entryX=0;entryY=0.5;entryDx=0;entryDy=0;entryPerimeter=0;" edge="1" parent="8Fc49vDhlUz9kEKMXbQt-2" source="8Fc49vDhlUz9kEKMXbQt-24" target="8Fc49vDhlUz9kEKMXbQt-46">
          <mxGeometry relative="1" as="geometry" />
        </mxCell>
        <mxCell id="8Fc49vDhlUz9kEKMXbQt-24" value="Вибір бажаних курів" style="points=[[0.25,0,0],[0.5,0,0],[0.75,0,0],[1,0.25,0],[1,0.5,0],[1,0.75,0],[0.75,1,0],[0.5,1,0],[0.25,1,0],[0,0.75,0],[0,0.5,0],[0,0.25,0]];shape=mxgraph.bpmn.task;whiteSpace=wrap;rectStyle=rounded;size=10;taskMarker=abstract;isLoopSub=1;" vertex="1" parent="8Fc49vDhlUz9kEKMXbQt-2">
          <mxGeometry x="350" y="50" width="120" height="80" as="geometry" />
        </mxCell>
        <mxCell id="8Fc49vDhlUz9kEKMXbQt-46" value="Відправка заявки на курси" style="points=[[0.25,0,0],[0.5,0,0],[0.75,0,0],[1,0.25,0],[1,0.5,0],[1,0.75,0],[0.75,1,0],[0.5,1,0],[0.25,1,0],[0,0.75,0],[0,0.5,0],[0,0.25,0]];shape=mxgraph.bpmn.task;whiteSpace=wrap;rectStyle=rounded;size=10;taskMarker=abstract;" vertex="1" parent="8Fc49vDhlUz9kEKMXbQt-2">
          <mxGeometry x="530" y="50" width="120" height="80" as="geometry" />
        </mxCell>
        <mxCell id="8Fc49vDhlUz9kEKMXbQt-53" value="Оплата курсу" style="points=[[0.25,0,0],[0.5,0,0],[0.75,0,0],[1,0.25,0],[1,0.5,0],[1,0.75,0],[0.75,1,0],[0.5,1,0],[0.25,1,0],[0,0.75,0],[0,0.5,0],[0,0.25,0]];shape=mxgraph.bpmn.task;whiteSpace=wrap;rectStyle=rounded;size=10;taskMarker=abstract;" vertex="1" parent="8Fc49vDhlUz9kEKMXbQt-2">
          <mxGeometry x="710" y="50" width="120" height="80" as="geometry" />
        </mxCell>
        <mxCell id="8Fc49vDhlUz9kEKMXbQt-63" value="Курси вдало зараховано" style="points=[[0.145,0.145,0],[0.5,0,0],[0.855,0.145,0],[1,0.5,0],[0.855,0.855,0],[0.5,1,0],[0.145,0.855,0],[0,0.5,0]];shape=mxgraph.bpmn.event;html=1;verticalLabelPosition=bottom;labelBackgroundColor=#ffffff;verticalAlign=top;align=center;perimeter=ellipsePerimeter;outlineConnect=0;aspect=fixed;outline=standard;symbol=message;" vertex="1" parent="8Fc49vDhlUz9kEKMXbQt-2">
          <mxGeometry x="1546" y="90" width="50" height="50" as="geometry" />
        </mxCell>
        <mxCell id="8Fc49vDhlUz9kEKMXbQt-113" style="edgeStyle=orthogonalEdgeStyle;rounded=0;orthogonalLoop=1;jettySize=auto;html=1;exitX=1;exitY=0.5;exitDx=0;exitDy=0;exitPerimeter=0;entryX=0;entryY=0.5;entryDx=0;entryDy=0;entryPerimeter=0;" edge="1" parent="8Fc49vDhlUz9kEKMXbQt-2" source="8Fc49vDhlUz9kEKMXbQt-111" target="8Fc49vDhlUz9kEKMXbQt-112">
          <mxGeometry relative="1" as="geometry" />
        </mxCell>
        <mxCell id="8Fc49vDhlUz9kEKMXbQt-111" value="Вибір оплти чи відміни" style="points=[[0.25,0,0],[0.5,0,0],[0.75,0,0],[1,0.25,0],[1,0.5,0],[1,0.75,0],[0.75,1,0],[0.5,1,0],[0.25,1,0],[0,0.75,0],[0,0.5,0],[0,0.25,0]];shape=mxgraph.bpmn.task;whiteSpace=wrap;rectStyle=rounded;size=10;taskMarker=abstract;" vertex="1" parent="8Fc49vDhlUz9kEKMXbQt-2">
          <mxGeometry x="1060" y="50" width="120" height="80" as="geometry" />
        </mxCell>
        <mxCell id="8Fc49vDhlUz9kEKMXbQt-114" style="edgeStyle=orthogonalEdgeStyle;rounded=0;orthogonalLoop=1;jettySize=auto;html=1;exitX=0.5;exitY=0;exitDx=0;exitDy=0;exitPerimeter=0;entryX=0.5;entryY=0;entryDx=0;entryDy=0;entryPerimeter=0;" edge="1" parent="8Fc49vDhlUz9kEKMXbQt-2" source="8Fc49vDhlUz9kEKMXbQt-112" target="8Fc49vDhlUz9kEKMXbQt-53">
          <mxGeometry relative="1" as="geometry">
            <Array as="points">
              <mxPoint x="1275" y="30" />
              <mxPoint x="770" y="30" />
            </Array>
          </mxGeometry>
        </mxCell>
        <mxCell id="8Fc49vDhlUz9kEKMXbQt-115" value="Оплата" style="edgeLabel;html=1;align=center;verticalAlign=middle;resizable=0;points=[];" vertex="1" connectable="0" parent="8Fc49vDhlUz9kEKMXbQt-114">
          <mxGeometry x="-0.0269" relative="1" as="geometry">
            <mxPoint x="228" y="-10" as="offset" />
          </mxGeometry>
        </mxCell>
        <mxCell id="8Fc49vDhlUz9kEKMXbQt-112" value="Що вибрано" style="points=[[0.25,0.25,0],[0.5,0,0],[0.75,0.25,0],[1,0.5,0],[0.75,0.75,0],[0.5,1,0],[0.25,0.75,0],[0,0.5,0]];shape=mxgraph.bpmn.gateway2;html=1;verticalLabelPosition=bottom;labelBackgroundColor=#ffffff;verticalAlign=top;align=center;perimeter=rhombusPerimeter;outlineConnect=0;outline=none;symbol=none;" vertex="1" parent="8Fc49vDhlUz9kEKMXbQt-2">
          <mxGeometry x="1250" y="65" width="50" height="50" as="geometry" />
        </mxCell>
        <mxCell id="8Fc49vDhlUz9kEKMXbQt-117" value="Вихід до головного мені" style="points=[[0.145,0.145,0],[0.5,0,0],[0.855,0.145,0],[1,0.5,0],[0.855,0.855,0],[0.5,1,0],[0.145,0.855,0],[0,0.5,0]];shape=mxgraph.bpmn.event;html=1;verticalLabelPosition=bottom;labelBackgroundColor=#ffffff;verticalAlign=top;align=center;perimeter=ellipsePerimeter;outlineConnect=0;aspect=fixed;outline=end;symbol=terminate;" vertex="1" parent="8Fc49vDhlUz9kEKMXbQt-2">
          <mxGeometry x="1340" y="150" width="50" height="50" as="geometry" />
        </mxCell>
        <mxCell id="8Fc49vDhlUz9kEKMXbQt-118" style="edgeStyle=orthogonalEdgeStyle;rounded=0;jumpStyle=arc;jumpSize=6;orthogonalLoop=1;jettySize=auto;html=1;exitX=1;exitY=0.5;exitDx=0;exitDy=0;exitPerimeter=0;entryX=0.5;entryY=0;entryDx=0;entryDy=0;entryPerimeter=0;" edge="1" parent="8Fc49vDhlUz9kEKMXbQt-2" source="8Fc49vDhlUz9kEKMXbQt-112" target="8Fc49vDhlUz9kEKMXbQt-117">
          <mxGeometry relative="1" as="geometry" />
        </mxCell>
        <mxCell id="8Fc49vDhlUz9kEKMXbQt-119" value="Відміна" style="edgeLabel;html=1;align=center;verticalAlign=middle;resizable=0;points=[];" vertex="1" connectable="0" parent="8Fc49vDhlUz9kEKMXbQt-118">
          <mxGeometry x="-0.4373" relative="1" as="geometry">
            <mxPoint y="-10" as="offset" />
          </mxGeometry>
        </mxCell>
        <mxCell id="8Fc49vDhlUz9kEKMXbQt-4" value="Система" style="swimlane;html=1;startSize=20;horizontal=0;fillColor=#e1d5e7;strokeColor=#9673a6;" vertex="1" parent="8Fc49vDhlUz9kEKMXbQt-1">
          <mxGeometry x="20" y="230" width="1660" height="260" as="geometry" />
        </mxCell>
        <mxCell id="8Fc49vDhlUz9kEKMXbQt-13" style="edgeStyle=orthogonalEdgeStyle;rounded=0;orthogonalLoop=1;jettySize=auto;html=1;exitX=1;exitY=0.5;exitDx=0;exitDy=0;exitPerimeter=0;entryX=0;entryY=0.5;entryDx=0;entryDy=0;entryPerimeter=0;" edge="1" parent="8Fc49vDhlUz9kEKMXbQt-4" source="8Fc49vDhlUz9kEKMXbQt-10" target="8Fc49vDhlUz9kEKMXbQt-20">
          <mxGeometry relative="1" as="geometry">
            <mxPoint x="350" y="80" as="targetPoint" />
          </mxGeometry>
        </mxCell>
        <mxCell id="8Fc49vDhlUz9kEKMXbQt-18" style="edgeStyle=orthogonalEdgeStyle;rounded=0;orthogonalLoop=1;jettySize=auto;html=1;exitX=0;exitY=0.5;exitDx=0;exitDy=0;exitPerimeter=0;entryX=0.5;entryY=0;entryDx=0;entryDy=0;dashed=1;" edge="1" parent="8Fc49vDhlUz9kEKMXbQt-4" source="8Fc49vDhlUz9kEKMXbQt-10" target="8Fc49vDhlUz9kEKMXbQt-17">
          <mxGeometry relative="1" as="geometry" />
        </mxCell>
        <mxCell id="8Fc49vDhlUz9kEKMXbQt-10" value="Фільтрація курсів" style="points=[[0.25,0,0],[0.5,0,0],[0.75,0,0],[1,0.25,0],[1,0.5,0],[1,0.75,0],[0.75,1,0],[0.5,1,0],[0.25,1,0],[0,0.75,0],[0,0.5,0],[0,0.25,0]];shape=mxgraph.bpmn.task;whiteSpace=wrap;rectStyle=rounded;size=10;taskMarker=abstract;" vertex="1" parent="8Fc49vDhlUz9kEKMXbQt-4">
          <mxGeometry x="170" y="40" width="120" height="80" as="geometry" />
        </mxCell>
        <mxCell id="8Fc49vDhlUz9kEKMXbQt-17" value="Курси" style="shape=datastore;whiteSpace=wrap;html=1;labelPosition=center;verticalLabelPosition=bottom;align=center;verticalAlign=top;" vertex="1" parent="8Fc49vDhlUz9kEKMXbQt-4">
          <mxGeometry x="50" y="120" width="100" height="85" as="geometry" />
        </mxCell>
        <mxCell id="8Fc49vDhlUz9kEKMXbQt-20" value="Вивести знайдені курси" style="points=[[0.25,0,0],[0.5,0,0],[0.75,0,0],[1,0.25,0],[1,0.5,0],[1,0.75,0],[0.75,1,0],[0.5,1,0],[0.25,1,0],[0,0.75,0],[0,0.5,0],[0,0.25,0]];shape=mxgraph.bpmn.task;whiteSpace=wrap;rectStyle=rounded;size=10;taskMarker=abstract;" vertex="1" parent="8Fc49vDhlUz9kEKMXbQt-4">
          <mxGeometry x="350" y="40" width="120" height="80" as="geometry" />
        </mxCell>
        <mxCell id="8Fc49vDhlUz9kEKMXbQt-50" style="edgeStyle=orthogonalEdgeStyle;rounded=0;orthogonalLoop=1;jettySize=auto;html=1;exitX=0.5;exitY=1;exitDx=0;exitDy=0;exitPerimeter=0;entryX=1;entryY=0.5;entryDx=0;entryDy=0;dashed=1;" edge="1" parent="8Fc49vDhlUz9kEKMXbQt-4" source="8Fc49vDhlUz9kEKMXbQt-48" target="8Fc49vDhlUz9kEKMXbQt-17">
          <mxGeometry relative="1" as="geometry" />
        </mxCell>
        <mxCell id="8Fc49vDhlUz9kEKMXbQt-55" style="edgeStyle=orthogonalEdgeStyle;rounded=0;orthogonalLoop=1;jettySize=auto;html=1;exitX=1;exitY=0.5;exitDx=0;exitDy=0;exitPerimeter=0;entryX=0;entryY=0.5;entryDx=0;entryDy=0;entryPerimeter=0;" edge="1" parent="8Fc49vDhlUz9kEKMXbQt-4" source="8Fc49vDhlUz9kEKMXbQt-48" target="8Fc49vDhlUz9kEKMXbQt-54">
          <mxGeometry relative="1" as="geometry" />
        </mxCell>
        <mxCell id="8Fc49vDhlUz9kEKMXbQt-48" value="Створення квітанції на оплату курсів" style="points=[[0.25,0,0],[0.5,0,0],[0.75,0,0],[1,0.25,0],[1,0.5,0],[1,0.75,0],[0.75,1,0],[0.5,1,0],[0.25,1,0],[0,0.75,0],[0,0.5,0],[0,0.25,0]];shape=mxgraph.bpmn.task;whiteSpace=wrap;rectStyle=rounded;size=10;taskMarker=abstract;" vertex="1" parent="8Fc49vDhlUz9kEKMXbQt-4">
          <mxGeometry x="530" y="40" width="120" height="80" as="geometry" />
        </mxCell>
        <mxCell id="8Fc49vDhlUz9kEKMXbQt-54" value="Відправка студенту квітанції" style="points=[[0.25,0,0],[0.5,0,0],[0.75,0,0],[1,0.25,0],[1,0.5,0],[1,0.75,0],[0.75,1,0],[0.5,1,0],[0.25,1,0],[0,0.75,0],[0,0.5,0],[0,0.25,0]];shape=mxgraph.bpmn.task;whiteSpace=wrap;rectStyle=rounded;size=10;taskMarker=abstract;" vertex="1" parent="8Fc49vDhlUz9kEKMXbQt-4">
          <mxGeometry x="710" y="40" width="120" height="80" as="geometry" />
        </mxCell>
        <mxCell id="8Fc49vDhlUz9kEKMXbQt-62" style="edgeStyle=orthogonalEdgeStyle;rounded=0;orthogonalLoop=1;jettySize=auto;html=1;exitX=0.5;exitY=1;exitDx=0;exitDy=0;exitPerimeter=0;entryX=0;entryY=0.5;entryDx=0;entryDy=0;" edge="1" parent="8Fc49vDhlUz9kEKMXbQt-4" source="8Fc49vDhlUz9kEKMXbQt-57" target="8Fc49vDhlUz9kEKMXbQt-59">
          <mxGeometry relative="1" as="geometry" />
        </mxCell>
        <mxCell id="8Fc49vDhlUz9kEKMXbQt-57" value="Зарахування студенту на курс" style="points=[[0.25,0,0],[0.5,0,0],[0.75,0,0],[1,0.25,0],[1,0.5,0],[1,0.75,0],[0.75,1,0],[0.5,1,0],[0.25,1,0],[0,0.75,0],[0,0.5,0],[0,0.25,0]];shape=mxgraph.bpmn.task;whiteSpace=wrap;rectStyle=rounded;size=10;taskMarker=abstract;" vertex="1" parent="8Fc49vDhlUz9kEKMXbQt-4">
          <mxGeometry x="1300" y="40" width="120" height="80" as="geometry" />
        </mxCell>
        <mxCell id="8Fc49vDhlUz9kEKMXbQt-59" value="Студени" style="shape=datastore;whiteSpace=wrap;html=1;labelPosition=center;verticalLabelPosition=bottom;align=center;verticalAlign=top;" vertex="1" parent="8Fc49vDhlUz9kEKMXbQt-4">
          <mxGeometry x="1440" y="120" width="100" height="85" as="geometry" />
        </mxCell>
        <mxCell id="8Fc49vDhlUz9kEKMXbQt-72" style="edgeStyle=orthogonalEdgeStyle;rounded=0;orthogonalLoop=1;jettySize=auto;html=1;exitX=1;exitY=0.5;exitDx=0;exitDy=0;exitPerimeter=0;entryX=0;entryY=0.5;entryDx=0;entryDy=0;entryPerimeter=0;" edge="1" parent="8Fc49vDhlUz9kEKMXbQt-4" source="8Fc49vDhlUz9kEKMXbQt-65" target="8Fc49vDhlUz9kEKMXbQt-57">
          <mxGeometry relative="1" as="geometry" />
        </mxCell>
        <mxCell id="8Fc49vDhlUz9kEKMXbQt-89" value="Так" style="edgeLabel;html=1;align=center;verticalAlign=middle;resizable=0;points=[];" vertex="1" connectable="0" parent="8Fc49vDhlUz9kEKMXbQt-72">
          <mxGeometry x="0.3394" y="1" relative="1" as="geometry">
            <mxPoint as="offset" />
          </mxGeometry>
        </mxCell>
        <mxCell id="8Fc49vDhlUz9kEKMXbQt-90" style="edgeStyle=orthogonalEdgeStyle;rounded=0;orthogonalLoop=1;jettySize=auto;html=1;exitX=1;exitY=0.5;exitDx=0;exitDy=0;exitPerimeter=0;entryX=0;entryY=0.5;entryDx=0;entryDy=0;entryPerimeter=0;" edge="1" parent="8Fc49vDhlUz9kEKMXbQt-4" source="8Fc49vDhlUz9kEKMXbQt-65" target="8Fc49vDhlUz9kEKMXbQt-88">
          <mxGeometry relative="1" as="geometry" />
        </mxCell>
        <mxCell id="8Fc49vDhlUz9kEKMXbQt-91" value="Ні" style="edgeLabel;html=1;align=center;verticalAlign=middle;resizable=0;points=[];" vertex="1" connectable="0" parent="8Fc49vDhlUz9kEKMXbQt-90">
          <mxGeometry x="0.2217" y="2" relative="1" as="geometry">
            <mxPoint x="13" y="13" as="offset" />
          </mxGeometry>
        </mxCell>
        <mxCell id="8Fc49vDhlUz9kEKMXbQt-65" value="Курси сплачено?" style="points=[[0.25,0.25,0],[0.5,0,0],[0.75,0.25,0],[1,0.5,0],[0.75,0.75,0],[0.5,1,0],[0.25,0.75,0],[0,0.5,0]];shape=mxgraph.bpmn.gateway2;html=1;verticalLabelPosition=bottom;labelBackgroundColor=#ffffff;verticalAlign=top;align=center;perimeter=rhombusPerimeter;outlineConnect=0;outline=none;symbol=none;" vertex="1" parent="8Fc49vDhlUz9kEKMXbQt-4">
          <mxGeometry x="920" y="55" width="50" height="50" as="geometry" />
        </mxCell>
        <mxCell id="8Fc49vDhlUz9kEKMXbQt-88" value="Відправка студенту запиту на оплату чи відмову від обраних курсів" style="points=[[0.25,0,0],[0.5,0,0],[0.75,0,0],[1,0.25,0],[1,0.5,0],[1,0.75,0],[0.75,1,0],[0.5,1,0],[0.25,1,0],[0,0.75,0],[0,0.5,0],[0,0.25,0]];shape=mxgraph.bpmn.task;whiteSpace=wrap;rectStyle=rounded;size=10;taskMarker=abstract;" vertex="1" parent="8Fc49vDhlUz9kEKMXbQt-4">
          <mxGeometry x="1060" y="150" width="120" height="80" as="geometry" />
        </mxCell>
        <mxCell id="8Fc49vDhlUz9kEKMXbQt-116" style="edgeStyle=orthogonalEdgeStyle;rounded=0;orthogonalLoop=1;jettySize=auto;html=1;exitX=0.5;exitY=0;exitDx=0;exitDy=0;exitPerimeter=0;entryX=0.5;entryY=1;entryDx=0;entryDy=0;entryPerimeter=0;jumpStyle=arc;jumpSize=6;" edge="1" parent="8Fc49vDhlUz9kEKMXbQt-1" source="8Fc49vDhlUz9kEKMXbQt-88" target="8Fc49vDhlUz9kEKMXbQt-111">
          <mxGeometry relative="1" as="geometry" />
        </mxCell>
        <mxCell id="8Fc49vDhlUz9kEKMXbQt-9" value="Фільтри - предметна область, тривалість, ціна, назва(фільтр назви вводиться користувачем), та інше&amp;nbsp;" style="text;html=1;align=center;verticalAlign=middle;resizable=0;points=[];autosize=1;strokeColor=none;fillColor=none;fontSize=14;" vertex="1" parent="1">
          <mxGeometry x="110" y="220" width="680" height="20" as="geometry" />
        </mxCell>
      </root>
    </mxGraphModel>
  </diagram>
</mxfile>
